<svg id="Layer_1" data-name="Layer 1" xmlns="http://www.w3.org/2000/svg" viewBox="0 0 195 195"><defs><style>.cls-1{fill:pink;}.cls-1,.cls-2{stroke:#000;stroke-width:3px;}.cls-1,.cls-2,.cls-3{stroke-miterlimit:10;}.cls-2{fill:#fff;}.cls-3{stroke:#fff;stroke-width:0.5px;}</style></defs><circle class="cls-1" cx="97.5" cy="97.5" r="96"/><path d="M150.74,143.09c0,2.33-2.16,6.39-6.56,12.35-4.06,5.45-6.48,8.3-7.35,8.38a63.84,63.84,0,0,1-10.36.87H124c-1-.09-1.72-.09-2.07-.09a8.17,8.17,0,0,0-5.53,2c-.26,0-.6-.26-1.12-.78a7.45,7.45,0,0,0-1-.95c-1.38-.61-4-.86-7.86-.86-.52,0-2.76.25-6.91.69s-6.39.69-7,.69a13.43,13.43,0,0,1-2.76-.69,12.1,12.1,0,0,0-3-.69c-.43,0-1.64.86-3.71,2.5H80.6c-.09-1.3-1-2.42-2.94-3.37-1.64-.6-3.2-1.21-4.84-1.81v-9.07a16.76,16.76,0,0,1,1.12-3.8,14.71,14.71,0,0,0,1.13-4.58q0-7.51-.78-22.55c-.52-10-.78-14.77-.78-14.43,0-8,0-12.35.09-13.22a18.29,18.29,0,0,1,2.16-3.36,5.94,5.94,0,0,0,.86-3.72c0-1.81-.86-4-2.5-6.56a40.5,40.5,0,0,0,9.15-1.39,41.33,41.33,0,0,1,7.52-1.38c.52,0,3.46.52,9,1.56s8.47,1.55,9.07,1.55a3,3,0,0,0,1.56-.69A3,3,0,0,1,112,79c.44,0,3.89,1.12,10.46,3.28,8.81,2.94,14.42,4.75,16.76,5.44,4.06,9.25,6.13,14.26,6.13,15,0,2.67-1.12,5.52-3.45,8.38s-3.46,5.7-3.46,8.37a32.24,32.24,0,0,0,.09,3.37,71.28,71.28,0,0,1,6.56,8.47C148.93,136.87,150.74,140.76,150.74,143.09ZM103.66,76.83l-6.13-.69V75l6.13.7Zm-3.28-20.22-1.64-1.72C99.86,54.89,100.38,55.49,100.38,56.61Zm14.43,118.53c-.7.52-1.65,1.21-2.86,2.16H109c.52-1,1.21-2.51,2.16-4.32C112,173.41,113.08,174.19,114.81,175.14ZM161,143.43c0,5.88-.69,10.11-2.16,12.62a24,24,0,0,1-12.18,10.28,33.45,33.45,0,0,1-9,1.73c-5.1.34-8.38.69-9.85.95l-2.16-2.42c2.07.17,4.06.26,6.13.34a15.28,15.28,0,0,0,5.71-.6c1.38-.43,4.32-4,9-10.54s6.91-10.8,6.91-12.7c0-1.56-1.55-5.1-4.66-10.8-.44-.69-2-2.59-4.58-5.7-2.42-2.68-3.63-4.32-3.63-4.84q0-3.89,3.89-10.37c2.59-4.32,3.88-7.34,3.88-9.15,0-.69-.86-2.85-2.59-6.57s-3.37-7.08-5.09-10c-2-.6-7.69-2.33-17.11-5.36-6.82-2.07-10.54-3.19-11.23-3.19a4,4,0,0,0-1.55.26,3.32,3.32,0,0,1-1,.26c1.2-1.65,2.33-2.42,3.19-2.42a8.44,8.44,0,0,1,6.14,2.59,5.3,5.3,0,0,1,4.14-2,41.24,41.24,0,0,1,6.39.87,47.28,47.28,0,0,1,8.21,2,33.16,33.16,0,0,1,12.79,8.21A21.05,21.05,0,0,1,154,93c.69,2.34,1.46,4.58,2.16,6.91a5,5,0,0,0-.87,3.29,10.22,10.22,0,0,0,2.08,6.56,29.59,29.59,0,0,0-3.46,3.63c-1.47,1.64-2.42,2.42-2.94,2.42a3.75,3.75,0,0,1-2.33-1.3c-.09,1-.43,3.37-.95,7.35a13.65,13.65,0,0,1,2.33,1.29c1.9,2.85,3.8,5.7,5.7,8.47C159.21,137.47,161,141.45,161,143.43Zm-45.7-83c-.95-.17-2.16.52-3.62,2-.26-.86-.52-2.24-1-4.14s-.78-3.29-1-4.15c1.12.78,2.33,1.55,3.45,2.33A5.61,5.61,0,0,1,115.32,60.41Zm23.16,47.52a9.45,9.45,0,0,0-2.34-6c-1.55-1.9-3.19-3.89-4.83-5.88-6.74-.43-11.58-1.12-14.43-2.16a10,10,0,0,1-2.16,3.37,11,11,0,0,1-3.2,2.68c.43,1.12,1.39,3.28,2.77,6.39A20.5,20.5,0,0,1,116,111a70,70,0,0,1-1.73,10.54c2.59-.95,5.27-1.9,7.95-2.85a31.91,31.91,0,0,0,7.17-3.8C131.65,112.94,134.68,110.61,138.48,107.93ZM125.6,113c.09,1.12-.86,2.07-2.76,2.85s-3.8,1.64-5.7,2.33a51.4,51.4,0,0,0,.86-7.6c0-.52-.6-2.08-1.9-4.84a19.19,19.19,0,0,1-1.9-4.84c0-.69.61-1.55,1.73-2.76s2.07-1.73,2.76-1.73a27.85,27.85,0,0,1,3.37.34,26.59,26.59,0,0,0,3.63.35V113Zm15.47,29.28c-2.51-1.55-5.1-3-7.6-4.49a19.56,19.56,0,0,0-8.38-1.56,10.77,10.77,0,0,0-6.31,1.56c-2.16,1.64-3.28,3.45-3.28,5.27a21.81,21.81,0,0,0,2.42,8.64c2.07,4.32,4.32,6.39,6.91,6.39q1.15,0,5.7-2.59a66.2,66.2,0,0,0,7.86-5.27,18,18,0,0,1-.26-3.2C138.82,146,139.86,144.38,141.07,142.31Zm-10.28,10.37a19.37,19.37,0,0,0-3.37,2.33,5.48,5.48,0,0,1-2.42,1.3c-3,0-5.53-4.41-7.78-13.22a3,3,0,0,1,1.13-1.9l2.24-2.25h6.91a37.38,37.38,0,0,1-1.81,11.66A22.36,22.36,0,0,0,130.79,152.68Zm5.7-82A10.71,10.71,0,0,0,132.26,72c0,.17-.09-.6-.26-2.33a4.84,4.84,0,0,1,.26-2.77h3.62a6.83,6.83,0,0,0,.35,1.65A13.14,13.14,0,0,1,136.49,70.7Zm25.23,36.45-2.42,2.16a3.15,3.15,0,0,0-.78-2.33A13.88,13.88,0,0,1,161.72,107.15Z" transform="translate(-4.61 -7.28)"/><path class="cls-2" d="M137.27,68.88v1.47c-4.15,7.43-10.37,12.79-17.71,16.85-12.62,7-26.44,9.93-40.52,12.09-3.11.43-6.22.69-9.42,1H61.07c-1.38-.18-2.76-.52-4.14-.61a3.71,3.71,0,0,1-3.46-2.42c-3.54-7.25-7.34-14.42-11-21.68V73.11a11.58,11.58,0,0,1,5.79-6A95.46,95.46,0,0,1,59,62.75c3-1,6.13-1.64,9.24-2.42,0-4.67-.34-9.25.09-13.82.69-6.4,2.94-12.1,9.93-14.26h3.2c9.68,2.59,15.72,9.94,21.94,16.42,5.44-2.77,10.63-5.53,15.9-8A17,17,0,0,1,128.37,39a5.73,5.73,0,0,1,5.35,5.1c.52,3.88,1,7.77,1.47,11.66C135.8,60.24,136.58,64.56,137.27,68.88Zm-32-14.51c-4.75-5.79-9.5-11.15-15.37-15.29a30,30,0,0,0-6.74-3.55c-3.46-1.38-6.48-.43-9,2.51a17,17,0,0,0-3.8,9.07c-1.29,9.42.61,18.49,3.28,27.47a2.25,2.25,0,0,0,1.56,1c2.07,0,4.15-.09,6.22-.26,10.19-.86,19.52-4,27.73-10.28a33.19,33.19,0,0,0,2.51-2.33c-1.82-2.34-3.37-4.49-5.1-6.83-8.81,9.42-19.53,14.34-32.14,15.64-.17-.78-.26-1.38-.43-2C85.78,67.15,97.18,64.3,105.3,54.37Zm9.68,9c-.78.61-1.64,1.21-2.33,1.82-11.32,10-24.62,14-39.57,13A1.86,1.86,0,0,1,71.78,77a55.43,55.43,0,0,1-1.46-5.35c-.7-3-1.3-6.05-2-9.33-3.89,1-7.52,1.72-11.23,2.76S49.93,67.41,47,69.83c-3.28,2.77-3.11,6.31.43,8.55A17.5,17.5,0,0,0,53,80.8a72.55,72.55,0,0,0,38.7-1c9.77-2.76,18-8.38,25.83-14.6,4.58-3.63,8.82-7.6,11.75-12.61A20,20,0,0,0,131.74,46c.78-4-1.3-6-5.36-5.62a2.8,2.8,0,0,0-.86.09c-7.69,1.55-14.17,5.61-20.48,10C108.33,54.8,111.44,58.86,115,63.35Zm14.68,13.13c.26-7.17.52-14,.78-20.82a69.91,69.91,0,0,1-15,14.86C120.16,72.51,124.74,74.41,129.66,76.48ZM92.17,82.62c4.58,2.16,9.25,4.49,14.08,6.74a1.58,1.58,0,0,0,2.34-1.21c.77-4.76,1.46-9.51,2.16-14C104.53,77,98.39,79.85,92.17,82.62Zm21.17-10c-.69,5.18-1.39,10.19-2.16,15.46,6-2.42,11.66-5,16.24-9.76C122.67,76.31,118.17,74.5,113.34,72.6Zm-27,11.31c-6.14.52-12.18,1-18.4,1.47,4,3.72,7.86,7.34,11.83,11,.26.26,1.47-.08,1.64-.34C83.1,92,84.66,87.89,86.3,83.91Zm2.59.35c-1.82,4-3.54,7.86-5.27,11.66l.26.52C90.27,94.71,96.58,93,103,91.26v-.52C98.31,88.58,93.64,86.42,88.89,84.26ZM65.13,86.68c-2.07,3.54-4.06,7-6.13,10.62a67.74,67.74,0,0,0,17.71-.08C72.73,93.59,69,90.13,65.13,86.68Zm-16.5-4.93c2.68,4.75,5.44,9.68,8.38,14.86,2-4.06,3.89-7.86,5.7-11.49C57.88,84,53.21,82.88,48.63,81.75Zm83.11-9.15c.08,0,.26.08.34.08a8.7,8.7,0,0,1,1.3-1.64c1.64-1.55,1.81-3.28,1.3-5.36-.44-1.81-.7-3.71-1-5.61-.35-2.07-.69-4.15-1-6.31h-.26C132.17,60.07,132,66.38,131.74,72.6Z" transform="translate(-4.61 -7.28)"/><path class="cls-3" d="M105.3,54.37C97.18,64.3,85.78,67.15,74,69.57c.17.61.26,1.21.43,2,12.61-1.3,23.33-6.22,32.14-15.64,1.73,2.25,3.37,4.41,5.1,6.83-.87.77-1.65,1.64-2.51,2.33C101,71.39,91.65,74.5,81.46,75.36c-2.07.17-4.15.26-6.22.26a2.25,2.25,0,0,1-1.56-1c-2.67-9-4.66-18-3.28-27.47A16.73,16.73,0,0,1,74.2,38c2.42-2.85,5.45-3.8,9-2.51a33.66,33.66,0,0,1,6.74,3.55C95.8,43.22,100.55,48.58,105.3,54.37Z" transform="translate(-4.61 -7.28)"/><path class="cls-3" d="M115,63.35c-3.54-4.49-6.74-8.55-9.94-12.7,6.31-4.4,12.79-8.46,20.48-10a3.14,3.14,0,0,1,.86-.08c4.06-.35,6.14,1.64,5.36,5.61a20.65,20.65,0,0,1-2.51,6.65c-2.93,5.1-7.17,9.07-11.75,12.62-7.86,6.22-16.06,11.83-25.83,14.6C78.87,83.65,65.91,84.26,53,81a22.79,22.79,0,0,1-5.53-2.42C43.79,76.31,43.71,72.68,47,70A26.06,26.06,0,0,1,57.1,65.25c3.63-1,7.34-1.81,11.23-2.76.69,3.28,1.29,6.3,2,9.33a54.65,54.65,0,0,0,1.46,5.35,2.12,2.12,0,0,0,1.3,1.13c15,1,28.25-3,39.65-13A16.12,16.12,0,0,1,115,63.35Z" transform="translate(-4.61 -7.28)"/><path class="cls-3" d="M129.66,76.48c-4.92-2.07-9.5-4-14.25-6a72,72,0,0,0,15-14.86C130.18,62.49,129.92,69.31,129.66,76.48Z" transform="translate(-4.61 -7.28)"/><path class="cls-3" d="M92.17,82.62c6.14-2.77,12.36-5.62,18.49-8.38-.69,4.49-1.38,9.24-2.16,14a1.55,1.55,0,0,1-2.33,1.21C101.5,87.2,96.75,84.86,92.17,82.62Z" transform="translate(-4.61 -7.28)"/><path class="cls-3" d="M113.34,72.6c4.83,1.9,9.41,3.71,14.08,5.61-4.58,4.75-10.2,7.34-16.24,9.76C111.87,82.7,112.56,77.78,113.34,72.6Z" transform="translate(-4.61 -7.28)"/><path class="cls-3" d="M86.3,83.91c-1.56,4-3.2,8-4.93,12.1a1.66,1.66,0,0,1-1.64.34c-4-3.54-7.86-7.25-11.83-11C74,85,80.08,84.43,86.3,83.91Z" transform="translate(-4.61 -7.28)"/><path class="cls-3" d="M88.89,84.26c4.84,2.16,9.42,4.32,14.08,6.39v.52L83.88,96.35l-.26-.52C85.35,92.12,87.07,88.23,88.89,84.26Z" transform="translate(-4.61 -7.28)"/><path class="cls-3" d="M65.13,86.68c3.8,3.45,7.6,6.82,11.58,10.54A64.06,64.06,0,0,1,59,97.3C61.07,93.67,63.06,90.31,65.13,86.68Z" transform="translate(-4.61 -7.28)"/><path class="cls-3" d="M48.63,81.75c4.67,1.13,9.25,2.16,14.08,3.37C60.9,88.75,59,92.55,57,96.61,54.07,91.51,51.31,86.59,48.63,81.75Z" transform="translate(-4.61 -7.28)"/><path class="cls-3" d="M131.74,72.6c.17-6.22.43-12.53.6-18.75h.26c.35,2.07.69,4.15,1,6.31a56.14,56.14,0,0,0,1,5.61c.51,2.07.34,3.8-1.3,5.36-.52.52-.86,1.12-1.3,1.64A.42.42,0,0,0,131.74,72.6Z" transform="translate(-4.61 -7.28)"/></svg>