<?xml version="1.0" encoding="utf-8"?>
<!-- Generator: Adobe Illustrator 25.1.0, SVG Export Plug-In . SVG Version: 6.00 Build 0)  -->
<svg version="1.1" xmlns="http://www.w3.org/2000/svg" xmlns:xlink="http://www.w3.org/1999/xlink" x="0px" y="0px"
	 viewBox="0 0 720 344.2" style="enable-background:new 0 0 720 344.2;" xml:space="preserve">
<style type="text/css">
	.st0{display:none;}
	.st1{fill:#FFFFFF;stroke:#000000;stroke-width:3;stroke-miterlimit:10;}
	.st2{stroke:#FFFFFF;stroke-width:0.5;stroke-miterlimit:10;}
</style>
<g id="_x26_" class="st0">
</g>
<g id="Botanas">
	<g>
		<g>
			<path d="M133.7,137.6c0,2.7-2.5,7.4-7.6,14.3c-4.7,6.3-7.5,9.6-8.5,9.7c-4.3,0.7-8.3,1-12,1c-0.8,0-1.8,0-2.9,0
				c-1.2-0.1-2-0.1-2.4-0.1c-2.5,0-4.7,0.8-6.4,2.3c-0.3,0-0.7-0.3-1.3-0.9c-0.6-0.6-1-1-1.2-1.1c-1.6-0.7-4.6-1-9.1-1
				c-0.6,0-3.2,0.3-8,0.8c-4.7,0.5-7.4,0.8-8.1,0.8c-0.5,0-1.6-0.3-3.2-0.8c-1.6-0.5-2.8-0.8-3.5-0.8c-0.5,0-1.9,1-4.3,2.9h-2.7
				c-0.1-1.5-1.2-2.8-3.4-3.9c-1.9-0.7-3.7-1.4-5.6-2.1v-10.5c0-0.5,0.4-2,1.3-4.4c0.9-2.4,1.3-4.2,1.3-5.3c0-5.8-0.3-14.5-0.9-26.1
				c-0.6-11.6-0.9-17.1-0.9-16.7c0-9.2,0-14.3,0.1-15.3c0.1-0.4,0.9-1.7,2.5-3.9c0.7-0.8,1-2.3,1-4.3c0-2.1-1-4.6-2.9-7.6
				c2.6,0,6.1-0.5,10.6-1.6c4.5-1.1,7.4-1.6,8.7-1.6c0.6,0,4,0.6,10.4,1.8c6.3,1.2,9.8,1.8,10.5,1.8c0.5,0,1.1-0.3,1.8-0.8
				c0.7-0.5,1.3-0.8,1.8-0.8c0.5,0,4.5,1.3,12.1,3.8c10.2,3.4,16.7,5.5,19.4,6.3c4.7,10.7,7.1,16.5,7.1,17.4c0,3.1-1.3,6.4-4,9.7
				c-2.7,3.4-4,6.6-4,9.7c0,1.8,0,3.1,0.1,3.9c1.8,1.9,4.4,5.1,7.6,9.8C131.6,130.4,133.7,134.9,133.7,137.6z M79.2,60.9l-7.1-0.8
				v-1.3l7.1,0.8V60.9z M75.4,37.5l-1.9-2C74.8,35.5,75.4,36.2,75.4,37.5z M92.1,174.7c-0.8,0.6-1.9,1.4-3.3,2.5h-3.4
				c0.6-1.2,1.4-2.9,2.5-5C88.8,172.7,90.1,173.6,92.1,174.7z M145.6,138c0,6.8-0.8,11.7-2.5,14.6c-3.1,5.4-7.8,9.3-14.1,11.9
				c-2.3,0.9-5.7,1.6-10.4,2c-5.9,0.4-9.7,0.8-11.4,1.1l-2.5-2.8c2.4,0.2,4.7,0.3,7.1,0.4c2.8,0.1,5-0.1,6.6-0.7
				c1.6-0.5,5-4.6,10.4-12.2c5.3-7.6,8-12.5,8-14.7c0-1.8-1.8-5.9-5.4-12.5c-0.5-0.8-2.3-3-5.3-6.6c-2.8-3.1-4.2-5-4.2-5.6
				c0-3,1.5-7,4.5-12c3-5,4.5-8.5,4.5-10.6c0-0.8-1-3.3-3-7.6c-2-4.3-3.9-8.2-5.9-11.6c-2.3-0.7-8.9-2.7-19.8-6.2
				c-7.9-2.4-12.2-3.7-13-3.7c-0.7,0-1.3,0.1-1.8,0.3c-0.5,0.2-0.9,0.3-1.1,0.3c1.4-1.9,2.7-2.8,3.7-2.8c2.7,0,5.1,1,7.1,3
				c1.3-1.5,2.9-2.3,4.8-2.3c1.2,0,3.7,0.3,7.4,1c4.4,0.8,7.5,1.5,9.5,2.3c6.3,2.4,11.2,5.6,14.8,9.5c1.4,1.6,2.7,4,3.9,7.1
				c0.8,2.7,1.7,5.3,2.5,8c-0.7,0.8-1,2.1-1,3.8c0,3,0.8,5.6,2.4,7.6c-0.4,0.3-1.8,1.6-4,4.2c-1.7,1.9-2.8,2.8-3.4,2.8
				c-0.8,0-1.6-0.5-2.7-1.5c-0.1,1.1-0.5,3.9-1.1,8.5c0.8,0.3,1.6,0.8,2.7,1.5c2.2,3.3,4.4,6.6,6.6,9.8
				C143.5,131.1,145.6,135.7,145.6,138z M92.7,41.9c-1.1-0.2-2.5,0.6-4.2,2.3c-0.3-1-0.6-2.6-1.1-4.8c-0.5-2.2-0.9-3.8-1.1-4.8
				c1.3,0.9,2.7,1.8,4,2.7C91.7,38.4,92.5,40,92.7,41.9z M119.5,96.9c0-2.4-0.9-4.6-2.7-6.9c-1.8-2.2-3.7-4.5-5.6-6.8
				c-7.8-0.5-13.4-1.3-16.7-2.5c-0.3,1-1.1,2.3-2.5,3.9c-1.4,1.6-2.7,2.6-3.7,3.1c0.5,1.3,1.6,3.8,3.2,7.4c1.3,2.9,2,4.7,2,5.3
				c0,1.9-0.7,6-2,12.2c3-1.1,6.1-2.2,9.2-3.3c3.5-1.4,6.3-2.9,8.3-4.4C111.6,102.7,115.1,100,119.5,96.9z M104.6,102.8
				c0.1,1.3-1,2.4-3.2,3.3c-2.2,1-4.4,1.9-6.6,2.7c0.7-4.1,1-7.1,1-8.8c0-0.6-0.7-2.4-2.2-5.6c-1.5-3.1-2.2-5-2.2-5.6
				c0-0.8,0.7-1.8,2-3.2c1.3-1.3,2.4-2,3.2-2c0.6,0,1.9,0.1,3.9,0.4c2,0.3,3.4,0.4,4.2,0.4V102.8z M122.5,136.7
				c-2.9-1.8-5.9-3.5-8.8-5.2c-2.5-1.2-5.8-1.8-9.7-1.8c-3.2,0-5.6,0.6-7.3,1.8c-2.5,1.9-3.8,4-3.8,6.1c0,2.5,0.9,5.9,2.8,10
				c2.4,5,5,7.4,8,7.4c0.9,0,3.1-1,6.6-3c3.4-2,6.5-4,9.1-6.1c-0.2-1.1-0.3-2.3-0.3-3.7C119.9,141,121.1,139.1,122.5,136.7z
				 M110.6,148.7c-0.7,0.3-2,1.2-3.9,2.7c-1.3,1-2.3,1.5-2.8,1.5c-3.5,0-6.4-5.1-9-15.3c0-0.6,0.4-1.3,1.3-2.2
				c0.9-0.9,1.7-1.7,2.6-2.6h8c0,4.7-0.7,9.2-2.1,13.5C105.3,146.8,107.3,147.6,110.6,148.7z M117.2,53.8c-1.2,0-2.8,0.5-4.9,1.5
				c0,0.2-0.1-0.7-0.3-2.7c-0.2-1.2-0.1-2.2,0.3-3.2h4.2c0,0.3,0.1,0.9,0.4,1.9C117.1,52.4,117.2,53.2,117.2,53.8z M146.4,96
				l-2.8,2.5c0-1.2-0.3-2.1-0.9-2.7C145.1,95.8,146.3,95.9,146.4,96z"/>
			<path d="M145.5,82.5c-1.3-0.2-2.7,0.1-4,0.8C142.8,82.4,144.1,82.1,145.5,82.5z M210.6,117.4c0,0.6-0.8,2.7-2.3,6.2
				c-1.5,3.5-2.9,6.3-4.2,8.3c-1.4,2.4-4.6,4.4-9.5,6.2c-3,0.5-7.4,1.6-13,3.2c-0.4,0.2-2.1,0.9-4.9,2.3c-2.2,1.1-3.6,1.6-4.2,1.6
				c-0.6,0-1.6-0.6-2.9-1.8c-2.2-1.8-3.4-2.8-3.5-2.9c-1.8-1.3-4.8-2.6-9-3.9c-0.8-2.3-2.6-4.5-5.3-6.7c-3.1-2.5-5.3-4.8-6.6-6.9
				c-0.8-1.3-1.6-3.4-2.4-6.2c-0.6-2.4-0.9-4.2-0.9-5.3c0-5.2,3.6-12.2,10.9-21.1c7.5-9.2,13.8-13.8,18.9-14c0.4-0.2,1.1-0.5,2-0.9
				c0.9-0.1,2.5-0.3,4.8-0.6c2-0.3,3.3-0.4,3.9-0.4c1.7,0,5.6,1.4,11.6,4.3c5.6,2.7,9.5,4.8,11.5,6.3c0.9,0.7,1.8,2,2.7,3.9
				c0.8,1.9,1.6,3.8,2.3,5.7V117.4z M152.3,86.8c-4,0-6.2,0-6.8-0.1c0.6-0.5,2.6-1.3,5.9-2.5C152,84.7,152.3,85.6,152.3,86.8z
				 M210.6,167.7c-0.3,0-0.8,0.1-1.6,0.4c-0.8,0.3-1.5,0.4-2,0.4c-0.6,0-2.9-0.4-7.1-1.3c-4.1-0.9-6.5-1.3-7.1-1.3
				c-0.4,0-1.4,0.2-2.9,0.7c-1.5,0.5-2.6,0.7-3.3,0.7c-0.6,0-1.5-0.1-2.6-0.4c-1.1-0.3-2-0.4-2.5-0.4c-7.4,0-14.7,0.5-22,1.6
				c-0.3,0.1-0.9,0.4-1.8,0.9c-0.8,0.5-1.5,0.8-2,0.8c-0.7,0-4.1-1.1-10.2-3.4c-0.2-2.2,0.1-4.3,0.8-6.2h2.8c0.6,0,3.4,0.7,8.5,2.1
				c5.1,1.4,7.9,2.1,8.4,2.1c0.4,0,2.7-0.6,6.8-1.9c4.5-1.4,7.9-2.3,10-2.7c11.9-2,18.4-3,19.6-3c0.6,0,1.7,0.1,3.3,0.4
				c1.6,0.3,2.8,0.4,3.5,0.4C209.2,159.8,209.7,163.1,210.6,167.7z M154.3,172.2l-4.5-0.8v-1.1l4.5,0.6V172.2z M202.4,114.7
				c0-0.7-0.3-2-0.9-4c-0.6-2-1-3.2-1.1-3.5c-0.2-1,0-2.6,0.5-4.7c0.5-2.1,0.7-3.5,0.6-4.3c-0.2-1.9-0.8-3.8-1.9-5.9
				c-1.1-2.1-2.3-3.5-3.5-4.4c-1.9-1.3-5.1-2.7-9.6-4c-3.8-1.2-6.2-1.8-7.3-1.8c-1.8,0-6.3,4.1-13.5,12.4
				c-3.8,4.5-7.5,8.9-11.2,13.3c1.9,4.5,4.6,10.9,8.3,19.3c1.3,0.3,2.9,1,4.8,1.9c0.8,0.6,2.2,1.3,4.2,2.3c2.4,1.1,4,1.6,4.9,1.6
				c2.4,0,6.4-1.9,11.9-5.6c4-2.6,7-4.8,9-6.7C200.8,117.6,202.4,115.6,202.4,114.7z M160.6,179.8l-1.8,1.8c-1.1-1.2-2-1.8-2.8-1.8
				H160.6z M194.8,90c-1.3,0.2-3.1,0.2-5.2,0c-0.5-0.2-1.6-0.8-3.4-1.9c-1.3-0.8-2.4-1.3-3-1.3c-1.3,0-2.9,0.9-4.5,2.8
				c-2.4,2.7-4.1,4.4-5.2,5.2c-0.9,0.1-2.3,0.3-4.2,0.5c-6.3,9.6-9.5,15.1-9.5,16.5c0,0.4,0.7,2.3,2.1,5.6c1.6,3.9,2.7,6.7,3.2,8.5
				c-5.3-10.7-8-16.5-8-17.4c0-0.3,2.2-3.2,6.6-8.6c4.6-5.7,8.5-10.3,11.5-13.6c1.3-1.4,2.7-2.1,3.9-2.1
				C180.5,84.1,185.7,86.1,194.8,90z M176.4,169.3c-4.3,1.8-6.9,2.6-8,2.4h-10.6c4.3-1.9,7.9-2.7,10.7-2.4H176.4z M173,152.7
				c0,2.1-1.7,4.9-5.2,8.3c-3.4-3.7-5.1-6.8-5.1-9.2c0-0.4,0-0.8,0.1-1.1c1.2,0.5,2.4,0.8,3.7,0.8c1.7,0,3.2-0.5,4.7-1.4
				C172.4,151.1,173,152,173,152.7z M192.2,104.3c-1.2,3-3.2,7.4-5.9,13.1c-0.1,0.1-1.7,0.7-4.9,1.8c-2.2,0.8-3.6,1.3-4.3,1.3
				c-2.3,0-4.8-2.1-7.4-6.4c-2.4-3.6-3.5-6.1-3.5-7.3c0-0.6,1.5-3.8,4.4-9.6c2.4,0.9,4.5,1.4,6.6,1.4c0.4,0,1.3-0.2,2.8-0.7
				c1.4-0.5,2.4-0.7,3-0.7c0.8,0,2.2,0.9,4.3,2.8C190.4,102.7,192.1,104.2,192.2,104.3z M179.2,156.2c0,1.6-1,2.7-3,3.4
				c-1.5,0.4-3,0.8-4.4,1.3c0.7-1.6,1.8-4.1,3.4-7.5h2.4C178.6,154.4,179.2,155.3,179.2,156.2z M217.6,98.9c0,0.6-0.3,1.4-0.8,2.5
				c-0.4,0.8-0.8,1.6-1.1,2.4c-0.1,0.2,0.2,0.8,0.9,1.9c-0.1,1,0,2.5,0.1,4.5c0.3,2.5,0.4,4.2,0.4,5c0,1.4-0.2,2.6-0.5,3.5
				c-1.4,5.2-2.3,8.2-2.7,9.1c-1.2,3.5-2.6,6.3-4.3,8.2c-2.7,3.3-13.6,7.9-32.6,13.9c-0.6,0-1.3-0.3-2.1-1c-1.1-0.8-1.7-1.3-1.9-1.4
				c6.1-3.3,10.6-5.1,13.3-5.6c5.5-1,9-1.8,10.5-2.3c3.8-1.3,6.8-3.4,9-6.2c1.7-2.1,3.4-5.3,5.2-9.5c1.7-4,2.5-6.4,2.5-7.4
				c-1.3-9.4-1.9-15.4-1.9-17.8c0-0.4,0.2-1.1,0.6-2.1c0.4-1,0.5-1.6,0.4-2c-0.3-1.7-1.2-4-2.5-7.1c1.3,0,2.1,0.2,2.4,0.7
				c0.3,0.5,1.3,2.3,3.2,5.6C216.9,96.5,217.6,98.1,217.6,98.9z M198.4,108.1c0,1-0.3,2.7-1,5.1c-0.8,2.8-1.8,4.7-2.8,5.8
				c-1.3,1.4-3.6,2.9-6.9,4.4c-2.9,1.3-5,1.9-6.1,1.9c-0.7,0-1.3-0.3-1.9-1c-1.1-1.3-1.7-2-1.9-2.1c1.6-0.2,3.2-0.3,4.9-0.5
				c2.1-0.3,3.7-1,4.8-1.9c1.6-1.4,3-3.8,4.2-7.1c0.9-2.9,1.9-5.7,2.8-8.6C197.1,105.3,198.4,106.7,198.4,108.1z M189.4,173.5
				c-0.4,0.5-0.8,1-1.1,1.5c-0.6,0.7-1.2,1-1.9,1c-1.2,0-2.7-1.1-4.4-3.3C184.7,173.5,187.1,173.7,189.4,173.5z M216.8,171.1
				c-1.9,1-3.5,1.5-5.1,1.5c-0.6,0-3.3-0.5-8.1-1.4c-4.8-0.9-7.5-1.4-8.1-1.4c-0.5,0-1.8,0.3-3.8,0.8c-2.4,0.7-4.2,1.1-5.6,1.3
				c-0.6-0.5-0.9-1.3-0.9-2.5c0.8-0.1,2.2-0.4,4-0.8c1.8-0.5,3-0.7,3.5-0.7c0.6,0,2.9,0.5,7.1,1.4c4.1,0.9,6.5,1.4,7.1,1.4
				c2.4,0,4.8-0.6,7.2-1.9c0-0.1-0.5-1.3-1.5-3.7c-0.8-1.9-1.3-3.1-1.3-3.8V159c2.4,0.2,4.2-0.1,5.3-0.8
				C216.5,165.3,216.6,169.6,216.8,171.1z M196.9,66.8c-0.9,0.4-2.5,0.1-4.7-1c0.4,0,1.2-0.5,2.3-1.5c0.4,0,0.9,0.3,1.5,0.8
				C196.6,65.5,196.9,66.1,196.9,66.8z"/>
			<path d="M287.6,72c-2.5,2.7-3.8,10.6-3.8,23.9l3,56.4L285,154c-6.1-3.4-13.5-6.4-22.1-9c-7.3-1.9-14.6-3.7-21.8-5.7
				c-1.3,1-2,2.1-2,3.4c0,2.6,1.1,6,3.2,10.1c-1,1.1-2.6,2.1-4.7,3.2c-2.6,1.2-5.1,1.8-7.3,1.8c-0.8,0-1.5-0.3-2.1-0.8
				c-0.3-0.3-0.7-0.7-1-1c-0.1-0.9-0.3-2.8-0.6-5.5c-0.3-2.7-0.5-4.4-0.5-5c0-0.6,0.3-1.8,0.8-3.7c0.5-1.9,0.8-3.1,0.8-3.8V99
				c0-0.3,0-1.4,0.1-3.4c0.2-1.7,0.2-3.2,0.1-4.5c-0.2-1.8-0.5-3.5-1-5.2c0-0.3,0-0.7,0-1.3c0-0.6,0-1.1,0-1.3
				c0.1-0.6,0.7-0.9,1.9-0.9c0.8,0,1.4,0.3,1.8,0.8c0.5,0.5,0.9,1,1.2,1.5c0.9-0.9,1.4-1.7,1.4-2.3c8.8,5.8,14.6,9.8,17.2,11.9
				c7.6,5.9,12.8,11.5,15.8,16.8c0.4,0.9,1.9,1.4,4.3,1.4c0.6,0,1.2-0.3,2-0.9c0.7-0.6,1.2-1,1.5-1.1c-1.5-1.4-2.3-2.9-2.3-4.5
				c0-0.3,0.2-2.9,0.6-7.7c0.5-5.5,0.9-10.4,1.1-14.6c-0.1-3.4-0.1-8.4,0-14.9c1.4-0.5,3.4-1.3,5.8-2.4c0,1.1,0.4,2.1,1.3,3l2.3-2.3
				C284.9,68,286.5,69.7,287.6,72z M234.4,59.2c0,0.8-0.5,2.3-1.6,4.4h-2.8c0-1.2,0.1-2.3,0.4-3.4c0.3-1.1,0.4-1.7,0.4-1.8
				c0.9,0,1.7,0.1,2.4,0.4C233.8,59.1,234.2,59.2,234.4,59.2z M252.2,144.3c-1.6,0.8-3.2,1.1-4.8,1.1c-0.6,0.8-0.9,2-0.9,3.4
				c0,0.9,0.6,3.9,1.9,8.8c-1.5,2.4-4.3,3.7-8.3,3.8c-3.1,0-6.3,0-9.5,0c0.2-0.1,2.6-1.1,7.2-2.9c3.4-1.3,5.9-3,7.4-4.9
				c-0.9-1.7-1.8-5.1-2.7-10.1C247,144.1,250.2,144.3,252.2,144.3z M273.7,133.2c0-0.8-0.2-2.6-0.5-5.6c-0.3-3.3-0.5-5.5-0.6-6.6
				c-1.7-1.3-4.3-2.9-7.9-4.7c-3.6-1.8-6-3.2-7.4-4.2c-1.3-1.1-2.9-2.9-4.7-5.5c-1.8-2.6-3-4.1-3.5-4.6c-0.5-0.5-2.6-1.6-6.3-3.3
				c-3.3-1.7-5.5-3.3-6.7-4.9v27.3c-0.1,0.5,0.4,2,1.5,4.5c1.1,2.5,1.6,4.2,1.6,5.1c4.7,2.6,10.6,5.5,17.8,8.7
				c6.9,3,10.8,4.5,11.6,4.5C272.1,143.9,273.7,140.4,273.7,133.2z M245.1,131.6c-4.5-3.8-6.8-11.6-6.8-23.5c0-0.4,0-1.7,0.1-3.9
				c0.1-2.1,0.1-3.8,0.1-5c1,0.7,2.4,1.6,4,2.8c0.8,9,0.9,15.4,0.5,19.1c0.4,0.5,1.1,1.3,2,2.3V131.6z M260.6,173.1
				c-0.7-0.2-2,0.5-3.9,2l-1.4-0.5l1-4.4C257.2,171.1,258.6,172.1,260.6,173.1z M281.4,155.3l-23.9-8.8h2.5
				C260.9,146.4,268.1,149.3,281.4,155.3z M268.8,102.4c-2-4-3.4-7.3-4-10.1c0,0.1,0.8,1.2,2.4,3.3c1.3,1.9,2,3.5,2,4.9
				C269.2,101.1,269.1,101.7,268.8,102.4z M270.8,122.5l-0.8,1l-4.2-3.4l0.6-1L270.8,122.5z M268.9,108.8c-1.8-0.5-2.7-1.9-2.7-4.2
				C268.1,106.4,268.9,107.8,268.9,108.8z M293.8,76.1c0,0.6-0.7,3.5-2,8.6c-1.3,5.2-2,8.1-2,8.6c0,0.1,0.8,4.5,2.4,13.1l0.6,41.9
				c-0.7,0.1-2.1-0.5-4.4-1.6v-27.8c-0.1-0.7-0.5-4.6-1.3-11.9c-0.8-7.2-1.1-11.1-1.1-11.7c0-5.7,0.6-12.3,1.8-19.8
				c0.3-0.5,1.6-1.4,4-2.7C293.2,74.3,293.8,75.3,293.8,76.1z M294.6,154.4c0,0.9-0.4,1.9-1.3,2.8c-0.8,1-1.7,1.5-2.5,1.5
				c-0.8,0-1.6-0.3-2.4-0.8c-1.2-0.7-1.9-1.1-2.3-1.1c1.1-1.1,2.2-2.8,3.4-5.2c0.8-1.5,1.7-2.3,2.5-2.3c0.3,0,0.5,0.1,0.9,0.3
				c0,0.4,0.3,1.2,0.8,2.2C294.3,152.9,294.6,153.7,294.6,154.4z"/>
			<path d="M399.4,90c-11.3,1.9-16.9,2.9-16.8,2.9c-0.5,0-1.7-0.3-3.6-0.9c-1.9-0.6-3.2-0.9-4-0.9c-1,0-2.4,0.9-4.1,2.8
				s-2.8,3.5-3.2,4.8c-1.8,6.3-2.8,11.9-3,16.7v44.8c-3.3-1.1-5.8-1.6-7.4-1.6c-0.8,0-2.1,0.3-4,0.9c-1.9,0.6-4.1,0.9-6.6,0.9
				c-0.8,0-4.4-0.7-10.7-2.1c-7.9-1.7-13.3-2.8-16.3-3.4c0.5-18.3,1.4-31,2.7-37.9c2.7,0.2,4.5-0.1,5.3-0.8V114
				c-1.6-0.8-3.4-0.8-5.3,0.1V90.9c-3.4-2.3-6.5-3.4-9.5-3.4c-0.8,0-1.2,0.3-1.3,0.9c-0.1,0.6-0.6,0.9-1.3,0.9
				c-0.7,0-1.9-0.2-3.5-0.6c-1.7-0.4-2.9-0.6-3.8-0.7c-0.7-1.2-1.9-2.7-3.8-4.4c0.6-1.3,1.2-2.7,1.9-3.9c0.8-2.1,1.1-3.9,0.9-5.4
				l38.5,4.3c0.8,0,3.3-0.3,7.6-0.9c4.3-0.6,6.8-0.9,7.6-0.9c0.7,0,2.1,0.4,4.3,1.3c2.2,0.9,3.6,1.3,4.2,1.3c0.5,0,1.7-0.3,3.6-0.9
				c1.9-0.6,3.2-0.9,4-0.9c0.7,0,1.8,0.4,3.5,1.3c1.6,0.9,2.8,1.3,3.6,1.3c0.8,0,1.6-0.4,2.5-1.3c0.9-0.9,1.7-1.3,2.5-1.3
				c0.5,0,1.7,0.2,3.5,0.6c1.8,0.4,3.3,0.6,4.4,0.6c0.8,0,1.6-0.1,2.3-0.3l5.7,1V90z M318.6,92.4c-2.7,0.9-6.4,1.4-11.1,1.4
				c-1.3,0-2-0.9-2-2.7c1.1,0.3,3.2,0.6,6.4,0.7C315.1,92,317.3,92.2,318.6,92.4z M314,108.8l-5.2-1c0-0.8,1-2.3,3-4.3l2.1,2.1
				V108.8z M407.4,94.5c-1.3,0.2-6,0.7-13.9,1.6c-5.6,0.7-10,1-13.1,1c-2.2,0.9-3.9,3-5.2,6.2c-0.2,0.3-0.8,2.7-1.9,7.1
				c-1.8,6.6-2.5,12.5-2.1,17.7c0.2,1.9,0.1,6.9-0.3,15c-0.4,8.4-0.5,14.7-0.3,18.8c-1.1,1.8-1.6,3-1.6,3.8c-4-1.1-7.5-1.6-10.5-1.6
				c-0.7,0-1.9,0.1-3.5,0.4c-1.7,0.3-2.9,0.4-3.7,0.4c-6.5,0-15.9-2-28.4-5.9c3.3,0.9,7.8,1.9,13.6,2.9c5.3,0.8,8.6,1.3,10,1.3
				c0.1,0,2.6-0.2,7.4-0.6c4.9-0.4,8.5-0.6,11-0.6c1.5-1.3,2.4-4.9,2.5-10.7c-0.1,1.9-0.1-2.6-0.1-13.6v-23.7c0-0.8,0.4-1.7,1.1-3
				c0.8-1.2,1.2-2.1,1.3-2.6c-0.2-2,0-5,0.5-9c0.3-0.8,1.1-1.8,2.4-2.8c1.3-1.1,2.2-1.6,2.9-1.6c2.2,0,5.5-0.1,10-0.4
				c4.5-0.3,7.7-0.4,9.7-0.4c1.9,0,3.9-0.7,5.9-2.1c0.4-2.6,1.1-6.4,2.1-11.5c0.6,1.3,1.2,3.4,1.9,6.6
				C406,90.4,406.8,92.9,407.4,94.5z M328.3,170.1c-0.3,0-1.1-0.2-2.2-0.5c-1.1-0.3-1.9-0.5-2.2-0.5l3.3-3.3L328.3,170.1z
				 M354.2,175.6l-2.5,1.1v-1.3l2-1.1L354.2,175.6z M384,120c0,2-0.4,3.4-1.1,4c0-0.3,0.2-1,0.6-2C383.8,121,384,120.3,384,120z"/>
			<path d="M462.6,136c0,0.8-2.9,4.5-8.6,11.1c-6,6.7-9.6,10.1-11,10.1c-0.9,0-2.3-1-4.2-3c-2.6-2.9-4.5-4.7-5.7-5.6
				c-2.6-2-5.4-3-8.5-3c-4.6,0-9.6,0.4-14.9,1.1c-2.2,0.3-4.2,2-6.1,4.9c-1.5,2.7-2.1,4.8-1.9,6.3h-2.8c-2.6,0.1-5.6-1.2-8.8-3.9
				l30.9-77.4c2.7-0.3,4.5,0.3,5.3,1.8c2.3,4.5,4.5,8.9,6.8,13.4c3,5.8,6.5,11.6,10.4,17.4c3.5,4.2,6.9,8.5,10.4,12.8
				C459.7,129.1,462.6,133.8,462.6,136z M431,151.1c-2-2-3.7-3-5-3c-9.6,0-15.8,0.9-18.7,2.8c-0.8,0.5-1.5,2.5-2.3,5.9
				c-0.7,3-1.7,4.5-3.2,4.5c-1.3,0-2.9-0.4-4.5-1.3c0.3,0.2,1.1,0.8,2.3,1.8c0.8,0.8,1.6,1.1,2.3,1.1h7.1c0.8,0,1.5-0.2,1.8-0.6
				c0.4-0.4,0.5-0.6,0.4-0.6c-0.6-0.3-0.9-0.8-0.9-1.8c0-2.4,0.8-4.6,2.5-6.4c1.7-1.8,4.5-2.7,8.6-2.7
				C427.8,151.1,431,151.1,431,151.1z M424.3,133v-4.5c0-0.7-0.6-2.9-1.9-6.6c-1.4-4-2.3-6.9-2.5-8.7c-1.5,0.9-3.3,2.4-5.3,4.4
				c-0.8,2.9-2.3,7.1-4.4,12.8c1,0.6,2,1.2,2.9,1.8c1.3,0.7,2.2,1,2.9,1c0.3,0,1.2,0,2.6,0.1c1.4,0.1,2.5,0.1,3.2,0.1
				C422.9,133.3,423.8,133.2,424.3,133z M421.1,128.7c-2.6,1.4-5,1.7-7.1,0.9c0.8-2.7,1.9-6.5,3.3-11.4c0.5,1.1,1.1,2.8,1.8,5.2
				C419.8,125.8,420.5,127.6,421.1,128.7z M425.1,161.6c-1.4,0-2.1,1-2.1,3C423.5,164.1,424.2,163.1,425.1,161.6z M471.8,139.4
				c-6.5,8.6-14.1,16.5-22.7,23.6c-0.8,0-2.1-1-3.9-2.9c0.2-0.3,4-4.2,11.4-11.7c6.3-6.4,9.5-10.5,9.5-12.4c0-1.9-6.6-11-19.7-27.1
				c-0.5-1.5-1.5-3.7-3-6.7c-6.8-8.5-11.1-16.2-13-23h3c2.9,5.6,5.8,11.3,8.7,17c3.6,6.9,6.9,12.6,10,17
				C456.8,119.4,463.4,128.1,471.8,139.4z M444.3,75.3c-0.9,1.1-2.6,1.1-4.9,0.1c0.2-0.4,0.6-1.1,1.4-2.1c0,0.3,0.4,0.7,1.2,1
				C442.8,74.6,443.5,74.9,444.3,75.3z M444.5,165.7l-1,3.3l-1.1-0.5l1-2.8H444.5z M455.4,108h-1.3l-1-1.9l1.3-0.5L455.4,108z
				 M463.4,115.7c-3.8-3.2-5.7-5.7-5.7-7.6l1-2.4c3.2,1.6,4.8,3.1,4.7,4.4V115.7z"/>
			<path d="M540.1,72c-2.5,2.7-3.8,10.6-3.8,23.9l3,56.4l-1.9,1.8c-6.1-3.4-13.5-6.4-22.1-9c-7.3-1.9-14.6-3.7-21.8-5.7
				c-1.3,1-2,2.1-2,3.4c0,2.6,1.1,6,3.2,10.1c-1,1.1-2.6,2.1-4.7,3.2c-2.6,1.2-5,1.8-7.3,1.8c-0.8,0-1.5-0.3-2.1-0.8
				c-0.3-0.3-0.7-0.7-1-1c-0.1-0.9-0.3-2.8-0.6-5.5s-0.5-4.4-0.5-5c0-0.6,0.3-1.8,0.8-3.7c0.5-1.9,0.8-3.1,0.8-3.8V99
				c0-0.3,0-1.4,0.1-3.4c0.2-1.7,0.2-3.2,0.1-4.5c-0.2-1.8-0.5-3.5-1-5.2c0-0.3,0-0.7,0-1.3c0-0.6,0-1.1,0-1.3
				c0.1-0.6,0.7-0.9,1.9-0.9c0.8,0,1.4,0.3,1.8,0.8s0.9,1,1.2,1.5c0.9-0.9,1.4-1.7,1.4-2.3c8.8,5.8,14.6,9.8,17.2,11.9
				c7.6,5.9,12.8,11.5,15.8,16.8c0.4,0.9,1.9,1.4,4.3,1.4c0.6,0,1.2-0.3,2-0.9c0.7-0.6,1.2-1,1.4-1.1c-1.5-1.4-2.3-2.9-2.3-4.5
				c0-0.3,0.2-2.9,0.6-7.7c0.5-5.5,0.9-10.4,1.1-14.6c-0.1-3.4-0.1-8.4,0-14.9c1.4-0.5,3.4-1.3,5.8-2.4c0,1.1,0.4,2.1,1.3,3l2.3-2.3
				C537.3,68,539,69.7,540.1,72z M486.8,59.2c0,0.8-0.5,2.3-1.6,4.4h-2.8c0-1.2,0.1-2.3,0.4-3.4c0.3-1.1,0.4-1.7,0.4-1.8
				c0.9,0,1.7,0.1,2.4,0.4C486.3,59.1,486.7,59.2,486.8,59.2z M504.6,144.3c-1.6,0.8-3.2,1.1-4.8,1.1c-0.6,0.8-0.9,2-0.9,3.4
				c0,0.9,0.6,3.9,1.9,8.8c-1.5,2.4-4.3,3.7-8.3,3.8c-3.1,0-6.3,0-9.5,0c0.2-0.1,2.6-1.1,7.2-2.9c3.4-1.3,5.9-3,7.4-4.9
				c-0.9-1.7-1.8-5.1-2.7-10.1C499.5,144.1,502.7,144.3,504.6,144.3z M526.2,133.2c0-0.8-0.2-2.6-0.5-5.6c-0.3-3.3-0.5-5.5-0.6-6.6
				c-1.7-1.3-4.3-2.9-7.9-4.7c-3.6-1.8-6-3.2-7.4-4.2c-1.3-1.1-2.9-2.9-4.7-5.5c-1.8-2.6-3-4.1-3.5-4.6s-2.6-1.6-6.3-3.3
				c-3.3-1.7-5.5-3.3-6.7-4.9v27.3c-0.1,0.5,0.4,2,1.5,4.5c1.1,2.5,1.6,4.2,1.6,5.1c4.7,2.6,10.6,5.5,17.8,8.7
				c6.9,3,10.8,4.5,11.6,4.5C524.5,143.9,526.2,140.4,526.2,133.2z M497.6,131.6c-4.5-3.8-6.8-11.6-6.8-23.5c0-0.4,0-1.7,0.1-3.9
				c0.1-2.1,0.1-3.8,0.1-5c1,0.7,2.4,1.6,4,2.8c0.8,9,0.9,15.4,0.5,19.1c0.4,0.5,1.1,1.3,2,2.3V131.6z M513.1,173.1
				c-0.7-0.2-2,0.5-3.9,2l-1.4-0.5l1-4.4C509.6,171.1,511.1,172.1,513.1,173.1z M533.9,155.3l-23.9-8.8h2.5
				C513.4,146.4,520.5,149.3,533.9,155.3z M521.3,102.4c-2-4-3.4-7.3-4-10.1c0,0.1,0.8,1.2,2.4,3.3c1.3,1.9,2,3.5,2,4.9
				C521.7,101.1,521.6,101.7,521.3,102.4z M523.3,122.5l-0.8,1l-4.2-3.4l0.6-1L523.3,122.5z M521.4,108.8c-1.8-0.5-2.7-1.9-2.7-4.2
				C520.5,106.4,521.4,107.8,521.4,108.8z M546.3,76.1c0,0.6-0.7,3.5-2,8.6s-2,8.1-2,8.6c0,0.1,0.8,4.5,2.4,13.1l0.6,41.9
				c-0.7,0.1-2.1-0.5-4.4-1.6v-27.8c-0.1-0.7-0.5-4.6-1.3-11.9c-0.8-7.2-1.1-11.1-1.1-11.7c0-5.7,0.6-12.3,1.8-19.8
				c0.3-0.5,1.6-1.4,4-2.7C545.7,74.3,546.3,75.3,546.3,76.1z M547.1,154.4c0,0.9-0.4,1.9-1.3,2.8c-0.8,1-1.7,1.5-2.5,1.5
				c-0.8,0-1.6-0.3-2.4-0.8c-1.2-0.7-1.9-1.1-2.3-1.1c1.1-1.1,2.2-2.8,3.4-5.2c0.8-1.5,1.7-2.3,2.5-2.3c0.3,0,0.5,0.1,0.9,0.3
				c0,0.4,0.3,1.2,0.8,2.2C546.8,152.9,547.1,153.7,547.1,154.4z"/>
			<path d="M625.7,136c0,0.8-2.9,4.5-8.6,11.1c-6,6.7-9.6,10.1-11,10.1c-0.9,0-2.3-1-4.2-3c-2.6-2.9-4.5-4.7-5.7-5.6
				c-2.6-2-5.4-3-8.5-3c-4.6,0-9.6,0.4-14.9,1.1c-2.2,0.3-4.2,2-6.1,4.9c-1.5,2.7-2.1,4.8-1.9,6.3h-2.8c-2.6,0.1-5.6-1.2-8.8-3.9
				l30.9-77.4c2.7-0.3,4.5,0.3,5.3,1.8c2.3,4.5,4.5,8.9,6.8,13.4c3,5.8,6.5,11.6,10.4,17.4c3.4,4.2,6.9,8.5,10.4,12.8
				C622.8,129.1,625.7,133.8,625.7,136z M594.1,151.1c-2-2-3.7-3-5-3c-9.6,0-15.8,0.9-18.7,2.8c-0.8,0.5-1.5,2.5-2.3,5.9
				c-0.7,3-1.7,4.5-3.2,4.5c-1.3,0-2.9-0.4-4.5-1.3c0.3,0.2,1.1,0.8,2.3,1.8c0.8,0.8,1.6,1.1,2.3,1.1h7.1c0.8,0,1.4-0.2,1.8-0.6
				c0.4-0.4,0.5-0.6,0.4-0.6c-0.6-0.3-0.9-0.8-0.9-1.8c0-2.4,0.8-4.6,2.5-6.4c1.7-1.8,4.5-2.7,8.6-2.7
				C590.9,151.1,594.1,151.1,594.1,151.1z M587.4,133v-4.5c0-0.7-0.6-2.9-1.9-6.6c-1.4-4-2.3-6.9-2.5-8.7c-1.5,0.9-3.3,2.4-5.3,4.4
				c-0.8,2.9-2.3,7.1-4.4,12.8c1,0.6,2,1.2,2.9,1.8c1.3,0.7,2.2,1,2.9,1c0.3,0,1.2,0,2.6,0.1c1.4,0.1,2.5,0.1,3.2,0.1
				C586,133.3,586.9,133.2,587.4,133z M584.2,128.7c-2.6,1.4-5,1.7-7.1,0.9c0.8-2.7,1.9-6.5,3.3-11.4c0.5,1.1,1.1,2.8,1.8,5.2
				C582.9,125.8,583.6,127.6,584.2,128.7z M588.2,161.6c-1.4,0-2.1,1-2.1,3C586.6,164.1,587.3,163.1,588.2,161.6z M634.9,139.4
				c-6.5,8.6-14.1,16.5-22.7,23.6c-0.8,0-2.1-1-3.9-2.9c0.3-0.3,4-4.2,11.4-11.7c6.3-6.4,9.5-10.5,9.5-12.4c0-1.9-6.6-11-19.7-27.1
				c-0.5-1.5-1.5-3.7-3-6.7c-6.8-8.5-11.2-16.2-13-23h3c2.9,5.6,5.8,11.3,8.7,17c3.6,6.9,6.9,12.6,10,17
				C619.9,119.4,626.5,128.1,634.9,139.4z M607.4,75.3c-0.9,1.1-2.6,1.1-4.9,0.1c0.2-0.4,0.6-1.1,1.4-2.1c0,0.3,0.4,0.7,1.2,1
				C605.9,74.6,606.6,74.9,607.4,75.3z M607.6,165.7l-1,3.3l-1.1-0.5l1-2.8H607.6z M618.5,108h-1.3l-1-1.9l1.3-0.5L618.5,108z
				 M626.5,115.7c-3.8-3.2-5.7-5.7-5.7-7.6l1-2.4c3.2,1.6,4.8,3.1,4.7,4.4V115.7z"/>
			<path d="M704.9,90.3c0,0.8-0.8,2.4-2.3,5c-1.5,2.6-3,4.7-4.5,6.5c-0.9,1.1-2.5,1.6-4.7,1.6c-1.2,0-3.2-2.1-6.1-6.4
				c2.5-1.9,4-3,4.4-3.3c1.8-1.2,3.2-1.9,4.4-2.1c0-0.4-0.1-1.1-0.3-2c-0.2-0.9-0.3-1.7-0.3-2.5c-0.4,0-1-0.1-1.8-0.3
				c-0.8-0.2-1.4-0.3-2-0.3c-1.1,0-3.5,1.4-7.1,4.2c-3.6,2.8-5.4,4.5-5.4,5.1c0,2,0.8,4.1,2.5,6.2c1.7,2.1,3.9,3.8,6.6,4.9
				c0.9,1.8,3.2,5.5,6.9,11.2c3.2,4.9,4.8,7.6,4.8,8.2c0,1.3-3.1,4.9-9.3,10.6c-6.2,5.7-9.6,8.6-10,8.6c-0.5,0-1.2,0.1-2.3,0.3
				c-1.1,0.2-1.9,0.3-2.5,0.3c-0.4,0-1.2-0.3-2.2-1c-1.1-0.7-1.9-1-2.5-1c-0.5,0-1.5,0.1-3,0.3c-1.5,0.2-2.5,0.3-3.1,0.3
				c-3.4,0-7.8-1.3-13.3-3.9c-4.1-2.1-8.2-4.2-12.2-6.4c0.5-0.4,1.1-1.3,1.8-2.5c0.8-1.7,1.4-2.7,1.6-3.2c0.3-0.1,0.9,0.2,1.7,0.8
				c0.8,0.6,1.5,0.9,2,1c9.9,1.9,14.9,2.9,15,2.9c-0.2,0,4.1-1.3,12.8-3.8c-1.1-2.3-3.1-5.4-5.9-9.5c-1.9-0.6-4.3-1.8-7.3-3.8
				c-1.2-1.3-2.6-3.5-4.3-6.8c-1.1-2.3-2.6-3.8-4.5-4.5c1.2-1.6,2.6-4,4.3-7.2c2-3.8,3.3-6.2,3.9-7.1c0.6-1,3.9-3.5,10-7.6
				c6.6-4.5,10.9-6.7,13-6.7c0.9,0,4.5,1,10.9,2.9c0.7,0.3,2.5,1.8,5.4,4.5C703.2,87,704.9,89.1,704.9,90.3z M706.1,162.8
				c0,0.7-0.7,2.3-2.1,4.8c-0.9,0.1-2.6,0.4-5,0.9c-2.4,0.5-4,0.8-4.5,0.8c-0.5,0-1.7-0.2-3.7-0.5c-1.9-0.3-3.4-0.5-4.4-0.6
				c-1.9-0.2-8.3,0-19.1,0.4c-11.7,0.5-17.3,0.8-16.8,0.8c-3.4,0-6.1-0.5-8.1-1.5c0-0.9,0.4-2.1,1.1-3.5c-0.2-0.3-0.3-1.2-0.4-2.5
				c-0.1-1.3-0.3-2.4-0.6-3c1,0.2,3.1,0.8,6.2,1.8c2.8,0.9,4.5,1.4,5,1.4c0.6,0,4-0.8,10.1-2.3c6.1-1.6,9.5-2.3,10.1-2.3
				c0.5,0,2.9,0.6,7.2,1.7c4.3,1.1,6.7,1.7,7.2,1.7c0.5,0,1.8-0.3,4-1c2.1-0.7,3.5-1,4.1-1c0.5,0,1.4,0.2,2.7,0.6
				c1.3,0.4,2.2,0.6,2.7,0.6c0.7,0,1.1-0.1,1.4-0.4c0.3-0.3,0.5-0.6,0.6-0.8c0.1,0.3,0.5,0.9,1.4,2
				C705.8,161.4,706.1,162.2,706.1,162.8z M675.9,170.8c-4.1,0.4-10.7,0.6-19.8,0.6h-5.7l14.4-0.6H675.9z M661.2,120.5l-1,1
				l-3.7-0.9c1.1-1.2,2.1-1.8,3.2-1.8L661.2,120.5z M659.5,74.9c-0.3,0.4-0.7,0.9-1,1.4c-0.3,0.5-0.8,0.8-1.3,0.8L659.5,74.9z
				 M666.5,75.5c-1.6,1.6-2.7,3.5-3.4,5.7h-2.4c-0.6-0.1-0.9-0.6-0.9-1.6c0-1.6,1.7-3.5,5-5.7L666.5,75.5z M674.6,148.1
				c-2.2,0.4-5.8,0.2-10.7-0.8c2.5,0.1,5.6-0.2,9.3-0.9C673.2,146.6,673.6,147.2,674.6,148.1z M669.5,78.8c-1.7,0.8-3.1,2-4.2,3.7
				C666.2,80.9,667.6,79.6,669.5,78.8z M672.3,179.9c0.3,0.3,0.3,0.7,0,1.1c-0.3,0.5-0.7,0.8-1,0.8
				C671.4,181.4,671.7,180.8,672.3,179.9z M705.5,128.9c0,1.3-3.1,4.8-9.3,10.6c-6,5.5-9.4,8.4-10.4,8.7c-1.7,0.3-4,0.7-6.9,1.4
				c-1-0.9-1.5-1.6-1.5-1.9c1.1,0.2,2.7,0.1,4.9-0.3c13.7-12,20.6-19,20.6-21c0-0.5-0.5-1.6-1.5-3.3c-1.5-2.8-2.3-4.2-2.4-4.4
				C703.3,124.3,705.5,127.7,705.5,128.9z M700.8,171c-1,0.2-3.3,0.6-6.9,1.4c-2.9,0.6-4.6,0.9-5.2,0.9c-2.9,0-6.2-0.8-10.1-2.4
				c0.7,0,1.7-0.2,3.2-0.5c1.4-0.3,2.4-0.5,2.9-0.5c0.6,0,2.3,0.3,5,1c2.8,0.7,4.5,1,5,1C695.9,171.8,698,171.5,700.8,171z
				 M693.4,89.4c-2,1.5-4,3-6.1,4.5c-2.4,1.9-3.7,3.7-4,5.7c1.1,1,2.4,2.4,3.9,4.3c-3.5-2.3-5.2-4.6-5.2-6.9c0-1.2,1-2.4,2.9-3.7
				c1.9-1.3,4-2.6,6.1-3.9H693.4z M697.7,116.3l-0.9,0.6l-5.7-7.7l0.9-0.6L697.7,116.3z M706.1,99.6c0,1.3-1.2,3.7-3.5,6.9
				c-1.1,0-2.9,0.3-5.6,0.8c-0.3-0.2-0.5-0.5-0.8-1.1c-0.3-0.6-0.6-1-0.8-1.3c1.3-0.3,3.1-1.6,5.3-4c1.9-1.9,3.2-3.6,3.9-4.9
				c0,0.2,0.3,0.7,0.8,1.5C705.9,98.3,706.1,99,706.1,99.6z M704.9,170.5l-0.4,1l-2.3-0.9v-1L704.9,170.5z M708.1,110.4l-2.3,2.3
				h-2.4c1.2-1.3,2.1-2.4,2.9-3.3C706.8,109.5,707.4,109.9,708.1,110.4z M709.4,172.5c-0.2-0.1-0.8-0.2-1.8-0.3
				c-1-0.1-1.5-0.5-1.5-1.2s0.4-2.1,1.1-4.3c0.8-2.2,1.1-3.8,1.1-4.9c0-0.8-0.2-1.4-0.5-2c0,0.2,0.3,0.6,0.8,1.2
				c0.5,0.6,0.8,1.2,0.8,1.8V172.5z M711.7,94.7l-1.4,5.2h-1l1.4-5.2H711.7z"/>
		</g>
		<g>
			<path d="M120,252c0,1.9-0.6,3.7-1.8,5.6c-1.4,2.1-3.1,3.4-5.1,4.1c-1.3,0.1-3.3,0.5-6.1,1c-0.2,0-0.6,0.2-1.2,0.5
				c-0.6,0.3-1.1,0.5-1.5,0.5c-1.7,0-4.1-1.2-7.1-3.6c-3-2.4-4.4-3.6-4.2-3.6c0.1,0-1.5,0.9-4.6,2.7c-3.3,1.9-5.8,3-7.6,3.4
				c-7.4,1.5-15,2.2-22.9,2.2c-4.1,0-7.4-3.1-9.7-9.4c-1.8-5-2.5-8.8-2-11.2c3-2.1,5.9-4.1,8.9-6.2c4.5-3,7.4-4.6,8.9-4.7
				c0.5,0,1-0.4,1.5-1.1c0.6-0.7,0.9-1.3,0.9-1.7c0-0.3-0.9-1.3-2.8-2.9c-3.1-2.7-4.8-4.2-5.1-4.5c0.4-2.5,0.6-4.5,0.6-6
				c0-2.8-0.6-5.5-1.7-7.8c5.7-5.2,9.8-8.6,12.1-10c3.5-2.1,7.6-3.2,12.3-3.2c2.9,0,6,0.8,9.2,2.3c1.3,0.6,2.4,1.7,3.4,3.3
				c0.7,1.3,1.4,2.6,2.1,3.9c2.4,4.1,3.6,6.7,3.6,7.6v2.7c-2.7,0.8-4.9,1.9-6.6,3.1c-0.5,0.3-1.3,1.2-2.5,2.6
				c-1.1,1.4-2,2.2-2.7,2.6c-1.7,1-3.5,1.9-5.3,2.9c-2.8,1.8-4.3,3.5-4.3,5c0,0.3,3.4,3.5,10.3,9.6c1.7-1,2.6-2.4,2.8-4.3
				c0-1.5,0-2.9,0-4.4c1.2-1.2,2.7-2.1,4.7-2.6c1.5-0.3,3.1-0.7,4.6-1.1c-0.5,2.1-1,4.1-1.5,6.2c-0.7,2.9-1.1,5.7-1.1,8.4
				c0,7.4,2.6,11,7.9,11c2.8,0,4.9-1.2,6.4-3.7c1-1.8,1.5-3.8,1.5-5.9c0-0.5-0.5-1-1.4-1.8c-0.9-0.7-1.6-1.2-2-1.3
				c-0.3,0.3-0.1,0.7,0.6,1.3c-0.4,0.6-1,1.4-1.8,2.3c-0.1,0.1,0.4,0.7,1.5,1.6v1.3c-0.3,0.6-0.8,0.9-1.5,0.9c-0.4,0-1-0.1-1.9-0.4
				c-0.9-0.3-1.5-0.4-1.8-0.4l-1.6,0.3V248c0-1.9,0.2-3.8,0.7-5.7c0.7-2.6,1.7-4,3.1-4c2.5,0,5.2,1.8,7.9,5.4
				C118.7,247,120,249.8,120,252z M56.1,265.4l-0.3,0.5l-1.6-0.8l0.2-0.5L56.1,265.4z M57.9,199.1l-0.5,1l-0.5-0.3l0.5-0.9
				L57.9,199.1z M60,232.2l-0.3,0.5l-2.2-1.2v-0.6L60,232.2z M64.3,232.1c-1.1,0-1.6,0.1-1.6,0.3c0-0.4-0.2-1-0.7-1.9
				c-0.5-0.9-0.8-1.4-0.8-1.5C62.4,229.8,63.5,230.8,64.3,232.1z M95.1,259.8c-4.4,4.5-11.1,6.8-20.2,6.8l-13.7-1
				c7.4-0.1,12.6-0.5,15.8-1.1c5.9-1.1,11.2-3.3,15.8-6.7C93.2,258.1,94,258.7,95.1,259.8z M86.8,252c0-1.4-0.3-2.4-1-3.2
				c-1.2-1.4-4.2-4-9-7.6c-4.8-3.6-7.6-5.5-8.3-5.5c-2.2,0-3.9,1.4-5.2,4.1c-1,2-1.5,3.8-1.5,5.5c0,3.8,1.1,7.1,3.2,9.9
				c2.5,3.2,5.8,4.7,10.2,4.7c2.3,0,4.5-0.5,6.8-1.6C85.2,256.8,86.8,254.7,86.8,252z M71.9,238.8c0-0.1-0.5-0.1-1.4-0.1
				c-1.9,0-3.3,1.2-4.4,3.5c-0.7,1.7-1.1,3.2-1.1,4.5c0,3,0.5,6,1.6,9c-2.3-3.4-3.5-6.8-3.5-10.3c0-1.9,0.4-3.7,1.3-5.4
				c1-2.1,2.3-3.1,4-3.1C69.5,236.8,70.6,237.5,71.9,238.8z M69.3,272.2c-0.1,0.1-0.6,0.1-1.6,0.1c-0.1-0.2-0.2-0.5-0.5-1
				c1.2-0.4,1.9-0.5,2.1-0.4V272.2z M90.3,211.4c0-2.1-0.5-4.1-1.6-6c-1.4-2.4-3.4-3.6-5.9-3.6c-3.6,0-6.7,2-9.6,5.9
				c-2.6,3.4-3.9,6.7-3.9,9.8c0,2.1,0.5,4,1.5,5.5c1.4,2,3.3,3,5.7,3c3.6,0,6.8-1.6,9.6-4.7C89,218.1,90.3,214.8,90.3,211.4z
				 M86.7,205c-0.3-0.2-1-0.3-2.1-0.3c-3.4,0-6.3,1.8-8.7,5.3c-2.1,3.2-3.1,6.6-3.1,10.2c0,1.3,0.2,2.5,0.6,3.5
				c-1.7-1.4-2.5-3.3-2.5-5.6c0-3.2,1.1-6.5,3.3-9.7c2.5-3.7,5.4-5.5,8.7-5.5C84.2,202.8,85.4,203.5,86.7,205z M73,245.7
				c-0.5,0.5-1.1,0.8-1.8,0.8c0.6-0.5,0.9-1.1,0.9-1.6L73,245.7z M75.4,255.6c-0.1,0-0.3,0-0.8,0.1c-0.5,0.1-0.8,0.1-0.9,0.1
				c0.8-0.8,1.3-1.4,1.3-1.6C75.3,254.7,75.4,255.1,75.4,255.6z M78.7,274.2l-0.4,1.6h-1.7C78.1,274.7,78.9,274.2,78.7,274.2z
				 M103,216.5c-0.6,0.4-1.4,1.3-2.5,2.7c-1.4,1.7-2.2,2.7-2.6,3c-2.5,1.5-4.9,3.1-7.3,4.6c-4.1,2.6-6.1,4.5-6.1,5.8
				c0,1.4,0.8,3.2,2.5,5.2c-1.4-1.5-3.8-3.3-7.2-5.4c0.2-0.8,0.6-1.7,1.3-2.8l5.9-4c3.3-2.1,5.7-4.1,7.4-6c0.6-0.6,1.5-1.3,2.8-1.8
				c1.3-0.6,2.2-0.9,2.7-0.9c0.3,0,0.6,0.1,0.9,0.2c0.3,0.1,0.4,0.2,0.5,0.2c0.2,0.2,0.3,0,0.3-0.6c0-4.1-1.7-8.7-5-13.8
				c3.1,2.2,4.9,4.6,5.5,7.3C102.4,212.3,102.7,214.4,103,216.5z M84.9,212.4c-0.2,0.5-0.6,1.5-1.2,3h-1.4c0.5-0.9,1.1-2.3,2-4.3
				L84.9,212.4z M88.3,193.3h-0.6v-2h0.6V193.3z M89.4,239.8l-0.4,0.4l-1.3-1.3l0.4-0.4L89.4,239.8z M105.5,232.9l-5.4,16.4h0.2
				c0-0.6-0.1-1.6-0.3-3c-0.2-1.4-0.3-2.2-0.3-2.5c0-2.3,0.8-6.2,2.3-11.7C102.9,232.4,104.1,232.6,105.5,232.9z M121.2,251.6
				c0.1,0.3,0.2,0.7,0.2,1.3c0,2.7-0.9,5.8-2.7,9.3c-2.2,4.1-4.6,6.1-7.4,6.1c-1,0-3.7-1.2-7.9-3.5c4,0,7.7-0.9,11-2.8
				C118.8,259.5,121.1,256.1,121.2,251.6z M112,250.7c-0.5,0.5-0.8,1-0.8,1.4c-0.5,0-1.1-0.3-1.7-1C110.6,251.1,111.5,251,112,250.7
				z M112.3,246.2c-0.2-0.1-0.5-0.2-1-0.5l0.9-1C112.3,244.8,112.3,245.3,112.3,246.2z M118.7,244.6l-0.5,0.3l-2.3-3l0.5-0.4
				L118.7,244.6z M123.2,263.2c0,0.7-0.3,1.3-0.8,1.8c-0.2-0.1-0.5-0.3-1-0.6C121.9,264.2,122.5,263.8,123.2,263.2z M126.4,263.2
				c0.1,1.2-0.2,2.7-1.1,4.4l-1.6-0.5C124,266.7,124.9,265.4,126.4,263.2z"/>
		</g>
		<g>
			<path d="M255.7,282.3c0,2.7-2.5,7.4-7.6,14.3c-4.7,6.3-7.5,9.6-8.5,9.7c-4.3,0.7-8.3,1-12,1c-0.8,0-1.8,0-2.9,0
				c-1.2-0.1-2-0.1-2.4-0.1c-2.5,0-4.7,0.8-6.4,2.3c-0.3,0-0.7-0.3-1.3-0.9c-0.6-0.6-1-1-1.2-1.1c-1.6-0.7-4.6-1-9.1-1
				c-0.6,0-3.2,0.3-8,0.8c-4.7,0.5-7.4,0.8-8.1,0.8c-0.5,0-1.6-0.3-3.2-0.8c-1.6-0.5-2.8-0.8-3.5-0.8c-0.5,0-1.9,1-4.3,2.9h-2.7
				c-0.1-1.5-1.2-2.8-3.4-3.9c-1.9-0.7-3.7-1.4-5.6-2.1v-10.5c0-0.5,0.4-2,1.3-4.4c0.9-2.4,1.3-4.2,1.3-5.3c0-5.8-0.3-14.5-0.9-26.1
				c-0.6-11.6-0.9-17.1-0.9-16.7c0-9.2,0-14.3,0.1-15.3c0.1-0.4,0.9-1.7,2.5-3.9c0.7-0.8,1-2.3,1-4.3c0-2.1-1-4.6-2.9-7.6
				c2.6,0,6.1-0.5,10.6-1.6c4.5-1.1,7.4-1.6,8.7-1.6c0.6,0,4,0.6,10.4,1.8c6.3,1.2,9.8,1.8,10.5,1.8c0.5,0,1.1-0.3,1.8-0.8
				c0.7-0.5,1.3-0.8,1.8-0.8c0.5,0,4.5,1.3,12.1,3.8c10.2,3.4,16.7,5.5,19.4,6.3c4.7,10.7,7.1,16.5,7.1,17.4c0,3.1-1.3,6.4-4,9.7
				c-2.7,3.4-4,6.6-4,9.7c0,1.8,0,3.1,0.1,3.9c1.9,1.9,4.4,5.1,7.6,9.8C253.6,275.1,255.7,279.5,255.7,282.3z M201.2,205.5l-7.1-0.8
				v-1.3l7.1,0.8V205.5z M197.4,182.2l-1.9-2C196.7,180.2,197.4,180.8,197.4,182.2z M214,319.4c-0.8,0.6-1.9,1.4-3.3,2.5h-3.4
				c0.6-1.2,1.4-2.9,2.5-5C210.7,317.4,212.1,318.2,214,319.4z M267.6,282.7c0,6.8-0.8,11.7-2.5,14.6c-3.1,5.4-7.8,9.3-14.1,11.9
				c-2.3,0.9-5.7,1.6-10.4,2c-5.9,0.4-9.7,0.8-11.4,1.1l-2.5-2.8c2.4,0.2,4.7,0.3,7.1,0.4c2.8,0.1,5-0.1,6.6-0.7
				c1.6-0.5,5-4.6,10.4-12.2c5.3-7.6,8-12.5,8-14.7c0-1.8-1.8-5.9-5.4-12.5c-0.5-0.8-2.3-3-5.3-6.6c-2.8-3.1-4.2-5-4.2-5.6
				c0-3,1.5-7,4.5-12c3-5,4.5-8.5,4.5-10.6c0-0.8-1-3.3-3-7.6c-2-4.3-3.9-8.2-5.9-11.6c-2.3-0.7-8.9-2.7-19.8-6.2
				c-7.9-2.4-12.2-3.7-13-3.7c-0.7,0-1.3,0.1-1.8,0.3c-0.6,0.2-0.9,0.3-1.1,0.3c1.4-1.9,2.7-2.8,3.7-2.8c2.7,0,5,1,7.1,3
				c1.3-1.5,2.9-2.3,4.8-2.3c1.2,0,3.7,0.3,7.4,1c4.4,0.8,7.5,1.5,9.5,2.3c6.3,2.4,11.2,5.6,14.8,9.5c1.4,1.6,2.7,4,3.9,7.1
				c0.8,2.7,1.7,5.3,2.5,8c-0.7,0.8-1,2.1-1,3.8c0,3,0.8,5.6,2.4,7.6c-0.4,0.3-1.8,1.6-4,4.2c-1.7,1.9-2.8,2.8-3.4,2.8
				c-0.8,0-1.6-0.5-2.7-1.5c-0.1,1.1-0.5,3.9-1.1,8.5c0.8,0.3,1.6,0.8,2.7,1.5c2.2,3.3,4.4,6.6,6.6,9.8
				C265.4,275.7,267.6,280.3,267.6,282.7z M214.7,186.6c-1.1-0.2-2.5,0.6-4.2,2.3c-0.3-1-0.6-2.6-1.1-4.8c-0.5-2.2-0.9-3.8-1.1-4.8
				c1.3,0.9,2.7,1.8,4,2.7C213.6,183.1,214.4,184.7,214.7,186.6z M241.4,241.5c0-2.4-0.9-4.6-2.7-6.9c-1.8-2.2-3.7-4.5-5.6-6.8
				c-7.8-0.5-13.4-1.3-16.7-2.5c-0.3,1-1.1,2.3-2.5,3.9c-1.4,1.6-2.7,2.6-3.7,3.1c0.5,1.3,1.6,3.8,3.2,7.4c1.3,2.9,2,4.7,2,5.3
				c0,1.9-0.7,6-2,12.2c3-1.1,6.1-2.2,9.2-3.3c3.5-1.4,6.3-2.9,8.3-4.4C233.6,247.3,237.1,244.6,241.4,241.5z M226.5,247.5
				c0.1,1.3-1,2.4-3.2,3.3c-2.2,1-4.4,1.9-6.6,2.7c0.7-4.1,1-7.1,1-8.8c0-0.6-0.7-2.4-2.2-5.6c-1.5-3.1-2.2-5-2.2-5.6
				c0-0.8,0.6-1.8,2-3.2c1.3-1.3,2.4-2,3.2-2c0.6,0,1.9,0.1,3.9,0.4c2,0.3,3.4,0.4,4.2,0.4V247.5z M244.5,281.4
				c-2.9-1.8-5.9-3.5-8.8-5.2c-2.5-1.2-5.8-1.8-9.7-1.8c-3.2,0-5.6,0.6-7.3,1.8c-2.5,1.9-3.8,4-3.8,6.1c0,2.5,0.9,5.9,2.8,10
				c2.4,5,5,7.4,8,7.4c0.9,0,3.1-1,6.6-3c3.5-2,6.5-4,9.1-6.1c-0.2-1.1-0.3-2.3-0.3-3.7C241.9,285.6,243,283.8,244.5,281.4z
				 M232.6,293.4c-0.7,0.3-2,1.2-3.9,2.7c-1.3,1-2.3,1.5-2.8,1.5c-3.5,0-6.4-5.1-9-15.3c0-0.6,0.4-1.3,1.3-2.2
				c0.9-0.9,1.7-1.7,2.6-2.6h8c0,4.7-0.7,9.2-2.1,13.5C227.3,291.4,229.2,292.2,232.6,293.4z M239.2,198.5c-1.2,0-2.8,0.5-4.9,1.5
				c0,0.2-0.1-0.7-0.3-2.7c-0.2-1.2-0.1-2.2,0.3-3.2h4.2c0,0.3,0.1,0.9,0.4,1.9C239,197.1,239.2,197.9,239.2,198.5z M268.3,240.6
				l-2.8,2.5c0-1.2-0.3-2.1-0.9-2.7C267,240.5,268.2,240.6,268.3,240.6z"/>
			<path d="M267.4,227.1c-1.3-0.2-2.7,0.1-4,0.8C264.8,227.1,266.1,226.8,267.4,227.1z M332.6,262.1c0,0.6-0.8,2.7-2.3,6.2
				c-1.5,3.5-2.9,6.3-4.2,8.3c-1.4,2.4-4.6,4.4-9.5,6.2c-3,0.5-7.4,1.6-13,3.2c-0.4,0.2-2.1,0.9-4.9,2.3c-2.2,1.1-3.6,1.6-4.2,1.6
				c-0.6,0-1.6-0.6-2.9-1.8c-2.2-1.8-3.4-2.8-3.5-2.9c-1.8-1.3-4.8-2.6-9-3.9c-0.8-2.3-2.6-4.5-5.3-6.7c-3.1-2.5-5.3-4.8-6.6-6.9
				c-0.8-1.3-1.6-3.4-2.4-6.2c-0.6-2.4-0.9-4.2-0.9-5.3c0-5.2,3.6-12.2,10.9-21.1c7.5-9.2,13.8-13.8,18.9-14c0.4-0.2,1.1-0.5,2-0.9
				c0.9-0.1,2.5-0.3,4.8-0.6c2-0.3,3.3-0.4,3.9-0.4c1.7,0,5.6,1.4,11.6,4.3c5.6,2.7,9.5,4.8,11.5,6.3c0.9,0.7,1.8,2,2.7,3.9
				c0.8,1.9,1.6,3.8,2.3,5.7V262.1z M274.3,231.4c-4,0-6.2,0-6.8-0.1c0.6-0.5,2.6-1.3,5.9-2.5C274,229.4,274.3,230.2,274.3,231.4z
				 M332.6,312.3c-0.3,0-0.8,0.1-1.6,0.4c-0.8,0.3-1.5,0.4-2,0.4c-0.6,0-2.9-0.4-7.1-1.3c-4.1-0.9-6.5-1.3-7.1-1.3
				c-0.4,0-1.4,0.2-2.9,0.7c-1.5,0.5-2.6,0.7-3.3,0.7c-0.6,0-1.5-0.1-2.6-0.4c-1.1-0.3-2-0.4-2.5-0.4c-7.4,0-14.7,0.5-22,1.6
				c-0.3,0.1-0.9,0.4-1.8,0.9c-0.8,0.5-1.5,0.8-2,0.8c-0.7,0-4.1-1.1-10.2-3.4c-0.2-2.2,0.1-4.3,0.8-6.2h2.8c0.6,0,3.4,0.7,8.5,2.1
				c5.1,1.4,7.9,2.1,8.4,2.1c0.4,0,2.7-0.6,6.8-1.9c4.5-1.4,7.9-2.3,10-2.7c11.9-2,18.4-3,19.6-3c0.6,0,1.7,0.1,3.3,0.4
				c1.6,0.3,2.8,0.4,3.5,0.4C331.2,304.4,331.7,307.8,332.6,312.3z M276.3,316.9l-4.5-0.8V315l4.5,0.6V316.9z M324.4,259.3
				c0-0.7-0.3-2-0.9-4c-0.6-2-1-3.2-1.1-3.5c-0.2-1,0-2.6,0.5-4.7c0.5-2.1,0.7-3.5,0.6-4.3c-0.2-1.9-0.8-3.8-1.9-5.9
				c-1.1-2.1-2.3-3.5-3.5-4.4c-1.9-1.3-5.1-2.7-9.6-4c-3.8-1.2-6.2-1.8-7.3-1.8c-1.8,0-6.3,4.1-13.5,12.4
				c-3.8,4.5-7.5,8.9-11.2,13.3c1.9,4.5,4.6,10.9,8.3,19.3c1.3,0.3,2.9,1,4.8,1.9c0.8,0.6,2.2,1.3,4.2,2.3c2.4,1.1,4,1.6,4.9,1.6
				c2.4,0,6.4-1.9,11.9-5.6c4-2.6,7-4.8,9-6.7C322.7,262.2,324.4,260.3,324.4,259.3z M282.6,324.5l-1.8,1.8c-1.1-1.2-2-1.8-2.8-1.8
				H282.6z M316.8,234.7c-1.3,0.2-3.1,0.2-5.2,0c-0.5-0.2-1.6-0.8-3.4-1.9c-1.3-0.8-2.4-1.3-3-1.3c-1.3,0-2.9,0.9-4.5,2.8
				c-2.4,2.7-4.1,4.4-5.2,5.2c-0.9,0.1-2.3,0.3-4.2,0.5c-6.3,9.6-9.5,15.1-9.5,16.5c0,0.4,0.7,2.3,2.1,5.6c1.6,3.9,2.7,6.7,3.2,8.5
				c-5.3-10.7-8-16.5-8-17.4c0-0.3,2.2-3.2,6.6-8.6c4.6-5.7,8.5-10.3,11.5-13.6c1.3-1.4,2.7-2.1,3.9-2.1
				C302.4,228.8,307.6,230.8,316.8,234.7z M298.4,314c-4.3,1.8-6.9,2.6-8,2.4h-10.6c4.3-1.9,7.9-2.7,10.7-2.4H298.4z M295,297.3
				c0,2.1-1.7,4.9-5.2,8.3c-3.4-3.7-5-6.8-5-9.2c0-0.4,0-0.8,0.1-1.1c1.2,0.5,2.4,0.8,3.7,0.8c1.7,0,3.2-0.5,4.7-1.4
				C294.4,295.8,295,296.7,295,297.3z M314.2,249c-1.2,3-3.2,7.4-5.9,13.1c-0.1,0.1-1.7,0.7-4.9,1.8c-2.2,0.8-3.6,1.3-4.3,1.3
				c-2.3,0-4.8-2.1-7.5-6.4c-2.4-3.6-3.5-6.1-3.5-7.3c0-0.6,1.5-3.8,4.4-9.6c2.4,0.9,4.5,1.4,6.6,1.4c0.4,0,1.3-0.2,2.8-0.7
				c1.4-0.5,2.4-0.7,3-0.7c0.8,0,2.2,0.9,4.3,2.8C312.4,247.4,314.1,248.9,314.2,249z M301.2,300.9c0,1.6-1,2.7-3,3.4
				c-1.5,0.4-3,0.8-4.4,1.3c0.7-1.6,1.8-4.1,3.4-7.5h2.4C300.6,299.1,301.2,300,301.2,300.9z M339.5,243.5c0,0.6-0.3,1.4-0.8,2.5
				c-0.4,0.8-0.8,1.6-1.1,2.4c-0.1,0.2,0.2,0.8,0.9,1.9c-0.1,1,0,2.5,0.1,4.5c0.3,2.5,0.4,4.2,0.4,5c0,1.4-0.2,2.6-0.5,3.5
				c-1.4,5.2-2.3,8.2-2.7,9.1c-1.2,3.5-2.6,6.3-4.3,8.2c-2.7,3.3-13.6,7.9-32.6,13.9c-0.6,0-1.3-0.3-2.1-1c-1.1-0.8-1.7-1.3-1.9-1.4
				c6.1-3.3,10.6-5.1,13.3-5.6c5.5-1,9-1.8,10.5-2.3c3.8-1.3,6.8-3.4,9-6.2c1.7-2.1,3.4-5.3,5.2-9.5c1.7-4,2.5-6.4,2.5-7.4
				c-1.3-9.4-1.9-15.4-1.9-17.8c0-0.4,0.2-1.1,0.6-2.1c0.4-1,0.5-1.6,0.4-2c-0.3-1.7-1.2-4-2.5-7.1c1.3,0,2.1,0.2,2.4,0.7
				c0.3,0.5,1.3,2.3,3.2,5.6C338.9,241.2,339.5,242.8,339.5,243.5z M320.3,252.8c0,1-0.3,2.7-1,5.1c-0.8,2.8-1.8,4.7-2.8,5.8
				c-1.3,1.4-3.6,2.9-6.9,4.4c-2.9,1.3-5,1.9-6.1,1.9c-0.7,0-1.3-0.3-1.9-1c-1.1-1.3-1.7-2-1.9-2.1c1.6-0.2,3.2-0.3,4.9-0.5
				c2.1-0.3,3.7-1,4.8-1.9c1.6-1.4,3-3.8,4.2-7.1c0.9-2.9,1.9-5.7,2.8-8.6C319,250,320.3,251.3,320.3,252.8z M311.4,318.2
				c-0.4,0.5-0.8,1-1.1,1.5c-0.6,0.7-1.2,1-1.9,1c-1.2,0-2.7-1.1-4.4-3.3C306.6,318.2,309.1,318.4,311.4,318.2z M338.8,315.8
				c-1.9,1-3.5,1.5-5,1.5c-0.6,0-3.3-0.5-8.1-1.4c-4.8-0.9-7.5-1.4-8.1-1.4c-0.5,0-1.8,0.3-3.8,0.8c-2.4,0.7-4.2,1.1-5.6,1.3
				c-0.6-0.5-0.9-1.3-0.9-2.5c0.8-0.1,2.2-0.4,4-0.8c1.8-0.5,3-0.7,3.5-0.7c0.6,0,2.9,0.5,7.1,1.4c4.1,0.9,6.5,1.4,7.1,1.4
				c2.4,0,4.8-0.6,7.2-1.9c0-0.1-0.5-1.3-1.5-3.7c-0.8-1.9-1.3-3.1-1.3-3.8v-2.3c2.4,0.2,4.2-0.1,5.3-0.8
				C338.5,310,338.5,314.2,338.8,315.8z M318.8,211.5c-0.9,0.4-2.5,0.1-4.7-1c0.4,0,1.2-0.5,2.3-1.5c0.4,0,0.9,0.3,1.5,0.8
				C318.5,210.2,318.8,210.8,318.8,211.5z"/>
			<path d="M409.1,280.7c0,0.8-2.9,4.5-8.6,11.1c-6,6.7-9.6,10.1-11,10.1c-0.9,0-2.3-1-4.2-3c-2.6-2.9-4.5-4.7-5.7-5.6
				c-2.6-2-5.4-3-8.5-3c-4.6,0-9.6,0.4-14.9,1.1c-2.2,0.3-4.2,2-6.1,4.9c-1.5,2.7-2.1,4.8-1.9,6.3h-2.8c-2.6,0.1-5.6-1.2-8.8-3.9
				l30.9-77.4c2.7-0.3,4.5,0.3,5.3,1.8c2.3,4.5,4.5,8.9,6.8,13.4c3,5.8,6.5,11.6,10.4,17.4c3.4,4.2,6.9,8.5,10.4,12.8
				C406.2,273.8,409.1,278.5,409.1,280.7z M377.5,295.8c-2-2-3.7-3-5-3c-9.6,0-15.8,0.9-18.7,2.8c-0.8,0.5-1.5,2.5-2.3,5.9
				c-0.7,3-1.7,4.5-3.2,4.5c-1.3,0-2.9-0.4-4.5-1.3c0.3,0.2,1.1,0.8,2.3,1.8c0.8,0.8,1.6,1.1,2.3,1.1h7.1c0.8,0,1.4-0.2,1.8-0.6
				c0.4-0.4,0.5-0.6,0.4-0.6c-0.6-0.3-0.9-0.8-0.9-1.8c0-2.4,0.8-4.6,2.5-6.4c1.7-1.8,4.5-2.7,8.6-2.7
				C374.2,295.8,377.4,295.8,377.5,295.8z M370.8,277.6v-4.5c0-0.7-0.6-2.9-1.9-6.6c-1.4-4-2.3-6.9-2.5-8.7
				c-1.5,0.9-3.3,2.4-5.3,4.4c-0.8,2.9-2.3,7.1-4.4,12.8c1,0.6,2,1.2,2.9,1.8c1.3,0.7,2.2,1,2.9,1c0.3,0,1.2,0,2.6,0.1
				c1.4,0.1,2.5,0.1,3.2,0.1C369.4,278,370.2,277.9,370.8,277.6z M367.6,273.3c-2.6,1.4-5,1.7-7.1,0.9c0.8-2.7,1.9-6.5,3.3-11.4
				c0.5,1.1,1.1,2.8,1.8,5.2C366.3,270.5,367,272.2,367.6,273.3z M371.6,306.3c-1.4,0-2.1,1-2.1,3
				C370,308.8,370.7,307.8,371.6,306.3z M418.3,284.1c-6.5,8.6-14.1,16.5-22.7,23.6c-0.8,0-2.1-1-3.9-2.9c0.3-0.3,4-4.2,11.4-11.7
				c6.3-6.4,9.5-10.5,9.5-12.4c0-1.9-6.6-11-19.7-27.1c-0.5-1.5-1.5-3.7-3-6.7c-6.8-8.5-11.2-16.2-13-23h3c2.9,5.6,5.8,11.3,8.7,17
				c3.6,6.9,6.9,12.6,10,17C403.3,264.1,409.9,272.8,418.3,284.1z M390.8,219.9c-0.9,1.1-2.6,1.1-4.9,0.1c0.2-0.4,0.6-1.1,1.4-2.1
				c0,0.3,0.4,0.7,1.2,1C389.2,219.3,390,219.6,390.8,219.9z M391,310.3l-1,3.3l-1.1-0.5l1-2.8H391z M401.9,252.6h-1.3l-1-1.9
				l1.3-0.5L401.9,252.6z M409.8,260.3c-3.8-3.2-5.7-5.7-5.7-7.6l1-2.4c3.2,1.6,4.8,3.1,4.7,4.4V260.3z"/>
			<path d="M421.7,285.6h-1.4v-3.8h1.4V285.6z M495.6,285.3c0,4.5-1.9,8.3-5.6,11.6c-3.7,3.3-7.8,4.9-12.1,4.9
				c-5.4,0-9.2-1.2-11.5-3.7c-1.6-1.7-4.2-6.4-7.7-14.1c-2.9,0.7-4.6,2.4-5.3,5.3c-0.3,2.2-0.5,4.4-0.6,6.7c-0.7,0-2.2,0.1-4.6,0.4
				c-2.4,0.3-3.9,0.4-4.6,0.4c-0.7,0-2.7-0.7-6.2-2c-3.5-1.3-5.5-2-6.2-2c-0.7,0-1.2,0.3-1.5,0.8c-0.3,0.5-0.8,0.8-1.5,0.8H424
				c0.6-2.6,1.3-6.5,2-11.6c-0.2-13.9,0-34.7,0.4-62.4c0.3-0.1,0.8-0.1,1.3-0.1c0.7,0,1.7,0.1,3.2,0.4c1.5,0.3,2.5,0.4,3.1,0.4
				c0.9,0,2-0.4,3.2-1.2c1.2-0.8,2-1.2,2.5-1.2c0.5,0,2.1,0.6,4.7,1.6c2.6,1.1,4.2,1.6,4.9,1.6c0.5,0,1.6-0.4,3.2-1.2
				s2.8-1.2,3.7-1.2c8.2,0,13.8,0.6,16.8,1.9c4.3,1.9,10.4,7.5,18.3,16.8c0.3,0.3,0.4,1.7,0.4,4.3c0,2.5-0.6,5.7-1.8,9.4
				c-1.2,3.7-2.4,6.6-3.7,8.5c-0.3,0.5-0.5,1.6-0.6,3.3c0,1.7-0.3,3-0.8,3.8c-0.8,1.5-3.6,3.4-8.6,5.6c-4.2,1.9-6.3,4.1-6.3,6.7
				c0,2.4,1.4,5,4.1,7.8c2.7,2.9,5.3,4.5,7.6,4.9c0.5,0.1,1.6,0.1,3.2,0.1c2.2,0,3.4-0.3,3.7-0.9c0.9-2.7,2-4.9,3.2-6.7
				c-0.3-0.3-2.4-1.8-6.6-4.5c0.1,1.9-0.5,2.9-1.8,2.9c-0.4,0-0.8,0-1.3-0.1c0.3-1.9,1-3.6,2.2-5.2c1.2-1.6,2.6-2.4,4.2-2.4
				c2.4,0,4.2,1.4,5.7,4.3C495.1,282.2,495.6,283.9,495.6,285.3z M436,298.2c-2.2,0.8-5.1,1.1-8.7,1.1c-0.1-0.3,1.1-1.6,3.4-3.9
				c0.5,0.3,1.4,0.7,2.6,1.4C434.5,297.5,435.4,298,436,298.2z M440.8,213.5c-1,0.4-2.3,1.1-3.8,2v-3c0.3,0,0.9,0.2,1.9,0.5
				C439.9,213.3,440.5,213.5,440.8,213.5z M452,299.7c-3.4,0.6-8.2,0.4-14.4-0.6C439.9,299.5,444.7,299.7,452,299.7z M448.2,306.9
				l-0.9,0.8l-1.1-1.1l0.9-0.9L448.2,306.9z M458.5,300.1h-4.7c0.8-1.5,1.7-3.8,2.5-6.9c0.8-3.1,1.5-5,1.9-5.9
				C458.2,288.6,458.3,292.9,458.5,300.1z M487.5,249c-1.5-0.4-2.5-2-2.9-4.7c-0.6-3.4-1.1-5.4-1.5-5.9c-2.6-3.5-6.3-5.7-11-6.6
				c-3.9-0.6-7.7-1.1-11.6-1.6c-0.8,0.8-1.9,3-3.5,6.4c-1.6,3.7-2.4,6.3-2.4,7.7v22.6c0.9,1.5,2.4,3.2,4.4,5.2
				c4.4-3,10.8-7.2,19.3-12.5C480.1,256.5,483.2,253,487.5,249z M458.6,305.8l-0.4,1.1l-2.1-1l0.5-1.1L458.6,305.8z M465.8,233.6
				c-3,2.4-4.5,6.7-4.5,12.8c0,0.9,0,2.3,0.1,4.2c0.1,1.9,0.1,3.3,0.1,4.1c0,1.2,0,3.2,0.1,6c0.1,2.8,0.1,4.9,0.1,6.2
				c-1.2,1.2-2.2,1.8-3.2,1.8c0-0.2-0.1-0.8-0.4-1.8c-0.3-1-0.3-1.6-0.3-1.9c0.8-1.2,1.3-2.7,1.3-4.5c0-1.6-0.4-3.9-1.1-6.9
				c-0.8-3-1.1-4.9-1.1-5.7c0-2.9,1.1-7.7,3.4-14.3H465.8z M501.2,286.1c0,2.6-1.5,7.5-4.4,14.5c-1.7,1.5-4.5,2.9-8.5,4.2
				c-4,1.3-7.3,1.9-10.1,1.9c-1.6,0-3.9-1-6.8-2.9c0.5,0,1.5,0.1,3,0.3c1.5,0.2,2.7,0.3,3.4,0.3c5.4,0,10.1-1.8,14-5.4
				c4.3-4,6.4-8.9,6.4-14.9c0-1,0-2-0.1-3C500.2,281.9,501.2,283.7,501.2,286.1z M474.9,258.9l-2,2l-0.9-0.9l2-2L474.9,258.9z
				 M496.5,245.4c0,0.3-0.9,4.2-2.7,11.5c-1.9,7.7-2.9,13.2-3.3,16.7c0.1-0.5-0.5-0.8-1.8-0.8c-1.6,0-4.1,1.5-7.4,4.4
				c-2.7,2.4-4.6,4.2-5.7,5.7c0.3,1.3,1,3.1,2,5.2c-0.7-0.8-2.5-3.3-5.4-7.7c1.1-1.3,2.8-2.9,5.1-4.8c1.8-0.7,3.6-1.4,5.4-2.1
				c2.6-1.3,4.1-3,4.5-5.2c0.6-2.8,2-6.9,4.3-12.5c1.7-4.2,2.6-8.6,2.7-13.3v-4.3C495.7,240.3,496.5,242.7,496.5,245.4z M487.1,285
				c0.2,0.2,0.3,0.4,0.3,0.6c0,1.5-0.8,2.3-2.3,2.3c0.3-0.3,0.7-0.7,1.1-1.5C486.5,285.7,486.9,285.2,487.1,285z M499.5,312.6h-2.9
				v-1.4h2.9V312.6z"/>
			<path d="M586.3,275c0,1.1-1.2,3.9-3.5,8.3c-2.7,5.1-5.1,8.3-7.2,9.8c-4.7,3.6-12.3,7.2-22.7,10.7c-0.1,0-2.9,0.1-8.5,0.3
				c-0.8,0.1-1.5,0.1-2.1,0.2c-0.5,0-1.4,0.4-2.7,1c-1.2,0.6-2.2,0.9-2.8,0.9c0.3,0-1.7-0.6-5.8-1.9c-4.1-1.3-8.5-1.9-13.1-1.9
				c-0.5,0-2.2,0.1-5.2,0.4c-2.9,0.3-4.7,0.4-5.3,0.4c-3.6,0-5.4-2.6-5.4-7.8c0-2.3,0.3-5.3,1-9c0.7-3.4,1-5.2,1-5.4
				c-1.6-8.3-2.4-16.6-2.3-24.7c-0.5-0.3-1.3-0.4-2.4-0.3c-1.7,0.3-2.6,0.4-2.7,0.4c-1.1-0.9-1.1-2.4-0.1-4.4c0.2,0,0.7,0.3,1.6,0.8
				c0.9,0.5,1.6,0.8,2.2,0.8c0.5-4.8,1.5-12.1,3-22c2.5-0.5,6.4-0.8,11.6-0.8c9.7,0,20.2,0.8,31.6,2.3c10.6,1.4,18.3,3,23,4.8
				c2.1,0.8,4.4,2.5,6.8,5.3s3.9,5.3,4.5,7.5C584.5,263.7,586.3,271.9,586.3,275z M583.9,213.2c-0.8-0.4-2.7-0.6-5.6-0.6
				c-0.6,0-2.9,0.4-6.9,1.1c-4,0.8-6.4,1.1-6.9,1.1c-0.7,0-3.8-0.6-9.3-1.9c-5.6-1.3-8.6-1.9-9.2-1.9c-0.5,0-3.4,0.4-8.6,1.1
				c-5.2,0.8-8.2,1.1-8.8,1.1c-0.5,0-2.1-0.1-4.9-0.4s-4.5-0.4-5.3-0.4c-0.6,0-3,0.4-7.1,1.1c-4.2,0.8-6.5,1.1-7.1,1.1
				c-1.4,0-2.5-0.8-3.2-2.5c-0.4-1-0.6-1.9-0.6-2.8c0-0.7,0.1-1.6,0.4-2.8c0.3-1.2,0.4-2,0.4-2.4c7.2,1.4,11.2,2.1,12,2.1
				c0.6,0,2.3-0.6,5-1.9s6-1.9,9.6-1.9c0.7,0,2.7,0.3,6.1,0.8c3.4,0.5,5.4,0.8,6,0.8c0.5,0,1.7-0.4,3.5-1.1c1.8-0.8,3.1-1.1,3.7-1.1
				c0.6,0,1.5,0.5,2.8,1.5c1.3,1,2.2,1.5,2.9,1.5c-0.1,0,4,0,12.4,0c8.3,0.1,14.6,0.1,18.8,0.1V213.2z M593.2,278.4
				c0,5.9-3.2,11.6-9.6,17c-5.1,4.4-11.7,8.2-19.6,11.4c-6.8,2.7-12,4-15.4,4c-5.6,0-10.3-0.3-14-0.9c-1.2-0.3-3.6-0.8-7.2-1.8
				c-3-0.8-4.9-1.1-5.7-1.1c-0.5,0-2.2,0.3-5,0.8c-2.9,0.5-4.5,0.8-5,0.8c-0.7,0-1.5-0.3-2.4-1c-1.2-1-1.9-1.6-2.1-1.6
				c1.4,0,3.6-0.2,6.6-0.6c2.9-0.4,4.6-0.6,5-0.6c4,0,7.7,0.6,11.2,1.9c3.5,1.3,6,1.9,7.4,1.9c5.1,0,10.4-0.8,16.2-2.4
				c1.8-0.5,9.3-4,22.6-10.6c1.8-0.8,4.3-4,7.6-9.5c3.3-5.5,5-9.2,5-11c0-2.4-1.1-8-3.4-16.5c-2.4-9.1-4.2-14.2-5.6-15.4
				c3.2,1.3,5.1,2.5,5.7,3.8c1.9,4,3.2,7.3,3.8,9.8C591.8,268.9,593.2,276.1,593.2,278.4z M559.2,216.9c-2.8-0.6-5.4-0.9-8-0.9
				c-2.6,0-5.8,0.4-9.7,1.3c-3.8,0.9-6.8,1.3-8.9,1.3c-3,0-11.3-0.6-24.9-1.9c4.1-1.3,7.7-1.9,10.9-1.9c0.7,0,2.1,0.3,4.4,0.8
				c2.3,0.5,3.7,0.8,4.3,0.8c0.7,0,3.7-0.5,9.2-1.5c5.4-1,8.4-1.5,9-1.5C547.7,213.4,552.2,214.6,559.2,216.9z M572.8,268.2
				c0-3.4-0.1-5.3-0.2-5.8c-0.1-0.5-0.9-3.4-2.5-8.8c-3-2.4-5.7-4.1-8-5c-2.3-0.9-5.4-1.8-9.3-2.8c-3.9-1-6.3-1.5-7.3-1.5
				c-0.7,0-1.7,0.1-3.2,0.4c-1.4,0.3-2.4,0.4-2.8,0.4v13c-0.1,0.6,0.4,1.8,1.4,3.7c1,1.9,1.5,3.1,1.5,3.7c0,0.6-0.8,4.5-2.3,11.7
				c-1.5,7.2-2.3,11.1-2.3,11.8c0,1.3,1.9,3.7,5.6,7.4c0.6-0.2,1.7-0.8,3.4-1.8c1.4-0.8,2.5-1.3,3.2-1.3c0.8,0,2,0.3,3.8,0.8
				c1.8,0.5,2.9,0.8,3.4,0.8c0.9,0,3.3-2.2,7.1-6.8c3.8-4.5,6.5-8.4,8.1-11.6c0.4-0.8,0.6-1.8,0.6-3c0.1-0.8,0.1-1.9-0.1-3.3
				C572.9,269,572.8,268.2,572.8,268.2z M558.4,250c-0.4,0-1.2-0.1-2.3-0.2c-1.1-0.1-2-0.2-2.6-0.2c-2.4,0-4.5,0.9-6.3,2.8
				c0,2.4,0.2,5.9,0.6,10.5c0.5,4.9,0.8,8.5,0.8,10.9c0,1.8-0.1,3.4-0.3,5c-0.8,3.5-1.8,8.4-3,14.6c-2.9-1.3-4.3-3.6-4.3-7.1
				c0-0.7,0.6-4.2,1.9-10.5c1.3-6.3,1.9-9.8,1.9-10.4c0-0.6-0.5-1.9-1.5-4c-1-2.1-1.5-3.4-1.4-4v-10c0.4,0,1.1-0.1,2.1-0.4
				c1-0.3,1.7-0.4,2.3-0.4c0.7,0,2.4,0.5,5.3,1.5C555,249.2,557.3,249.8,558.4,250z M561.3,251.4h-2v-1.3h2V251.4z M565.9,225.4
				c-0.9,0-2.7-0.6-5.2-1.9c0.1,0,0.7-0.1,2-0.4c1.2-0.3,2.3-0.4,3.2-0.4V225.4z M564.4,231h-3.5v-1.4h3.5V231z M592.3,207.4
				c0,0.9-0.1,2.7-0.4,5.2c-0.3,2.6-0.4,4.5-0.4,5.9c-2,0-5.4,0.3-10,0.8c-4.7,0.5-7.2,0.8-7.5,0.8c-0.4,0-2.1-0.5-4.9-1.4
				c-2.9-0.9-4.9-1.3-6.1-1.3c1.1,0,5.2-0.8,12.4-2.4c0.5-0.1,1.3,0,2.5,0.1c1.5,0.3,2.5,0.4,2.9,0.4h6.3c-0.7-2.7-0.6-5.7,0.3-9.1
				C588.5,207.2,590.2,207.5,592.3,207.4z M566.6,272.2c-1.9,0-2.9-0.5-2.9-1.4c0-0.8,0.2-1.3,0.5-1.6c0.3-0.3,0.5-0.5,0.5-0.7
				C566,269.8,566.6,271,566.6,272.2z M587.9,307.9c0,1.3-1.1,2.6-3.4,3.7c-0.7-0.6-1.3-0.9-1.8-0.9c0-0.3,0.8-1.3,2.4-2.8H587.9z
				 M599.2,237c0,0.3-0.1,0.7-0.4,1.4c-0.3,0.7-0.4,1.1-0.4,1.3c-0.8,0-1.9-0.1-3-0.3c-1.2-0.2-1.9-0.3-2-0.3c0-0.3,0.1-0.9,0.4-1.8
				c0.3-1,0.4-1.6,0.4-1.8C595.4,235.3,597.1,235.9,599.2,237z"/>
			<path d="M657.3,235c0,0.8-0.8,2.4-2.3,5c-1.5,2.6-3,4.7-4.5,6.5c-0.9,1.1-2.5,1.6-4.7,1.6c-1.2,0-3.2-2.1-6.1-6.4
				c2.5-1.9,4-3,4.4-3.3c1.8-1.2,3.2-1.9,4.4-2.1c0-0.4-0.1-1.1-0.3-2c-0.2-0.9-0.3-1.7-0.3-2.5c-0.4,0-1-0.1-1.8-0.3
				c-0.8-0.2-1.4-0.3-2-0.3c-1.1,0-3.5,1.4-7.1,4.2c-3.6,2.8-5.4,4.5-5.4,5.1c0,2,0.8,4.1,2.5,6.2c1.7,2.1,3.9,3.8,6.6,4.9
				c0.9,1.8,3.2,5.5,6.9,11.2c3.2,4.9,4.8,7.6,4.8,8.2c0,1.3-3.1,4.9-9.3,10.6c-6.2,5.7-9.6,8.6-10,8.6c-0.5,0-1.2,0.1-2.3,0.3
				c-1.1,0.2-1.9,0.3-2.5,0.3c-0.4,0-1.2-0.3-2.2-1c-1.1-0.7-1.9-1-2.5-1c-0.5,0-1.5,0.1-3,0.3c-1.5,0.2-2.5,0.3-3.1,0.3
				c-3.4,0-7.8-1.3-13.3-3.9c-4.1-2.1-8.2-4.2-12.2-6.4c0.5-0.4,1.1-1.3,1.8-2.5c0.8-1.7,1.4-2.7,1.6-3.2c0.3-0.1,0.9,0.2,1.7,0.8
				c0.8,0.6,1.5,0.9,2,1c9.9,1.9,14.9,2.9,15,2.9c-0.2,0,4.1-1.3,12.8-3.8c-1.1-2.3-3.1-5.4-5.9-9.5c-1.9-0.6-4.3-1.8-7.3-3.8
				c-1.2-1.3-2.6-3.5-4.3-6.8c-1.1-2.3-2.6-3.8-4.5-4.5c1.2-1.6,2.6-4,4.3-7.2c2-3.8,3.3-6.2,3.9-7.1c0.6-1,3.9-3.5,10-7.6
				c6.6-4.5,10.9-6.7,13-6.7c0.9,0,4.5,1,10.9,2.9c0.7,0.3,2.5,1.8,5.4,4.5C655.6,231.7,657.3,233.8,657.3,235z M658.5,307.4
				c0,0.7-0.7,2.3-2.1,4.8c-0.9,0.1-2.6,0.4-5,0.9c-2.4,0.5-4,0.8-4.5,0.8c-0.5,0-1.7-0.2-3.7-0.5c-1.9-0.3-3.4-0.5-4.4-0.6
				c-1.9-0.2-8.3,0-19.1,0.4c-11.7,0.5-17.3,0.8-16.8,0.8c-3.4,0-6.1-0.5-8.1-1.5c0-0.9,0.4-2.1,1.1-3.5c-0.2-0.3-0.3-1.2-0.4-2.5
				c-0.1-1.3-0.3-2.4-0.6-3c1,0.2,3.1,0.8,6.2,1.8c2.8,0.9,4.5,1.4,5,1.4c0.6,0,4-0.8,10.1-2.3c6.1-1.6,9.5-2.3,10.1-2.3
				c0.5,0,2.9,0.6,7.2,1.7c4.3,1.1,6.7,1.7,7.2,1.7c0.5,0,1.8-0.3,4-1c2.1-0.7,3.5-1,4.1-1c0.5,0,1.4,0.2,2.7,0.6
				c1.3,0.4,2.2,0.6,2.7,0.6c0.7,0,1.1-0.1,1.4-0.4c0.3-0.3,0.5-0.6,0.6-0.8c0.1,0.3,0.5,0.9,1.4,2
				C658.3,306.1,658.5,306.8,658.5,307.4z M628.4,315.5c-4.1,0.4-10.7,0.6-19.8,0.6h-5.7l14.4-0.6H628.4z M613.6,265.1l-1,1
				l-3.7-0.9c1.1-1.2,2.1-1.8,3.2-1.8L613.6,265.1z M612,219.6c-0.3,0.4-0.7,0.9-1,1.4c-0.3,0.5-0.8,0.8-1.3,0.8L612,219.6z
				 M618.9,220.2c-1.6,1.6-2.7,3.5-3.4,5.7h-2.4c-0.6-0.1-0.9-0.6-0.9-1.6c0-1.6,1.7-3.5,5-5.7L618.9,220.2z M627,292.8
				c-2.2,0.4-5.8,0.2-10.7-0.8c2.5,0.1,5.6-0.2,9.3-0.9C625.6,291.3,626.1,291.9,627,292.8z M621.9,223.5c-1.7,0.8-3.1,2-4.2,3.7
				C618.6,225.5,620,224.3,621.9,223.5z M624.7,324.6c0.3,0.3,0.3,0.7,0,1.1c-0.3,0.5-0.7,0.8-1,0.8
				C623.8,326.1,624.1,325.4,624.7,324.6z M657.9,273.6c0,1.3-3.1,4.8-9.3,10.6c-6,5.5-9.4,8.4-10.4,8.7c-1.7,0.3-4,0.7-6.9,1.4
				c-1-0.9-1.5-1.6-1.5-1.9c1.1,0.2,2.7,0.1,4.9-0.3c13.7-12,20.6-19,20.6-21c0-0.5-0.5-1.6-1.5-3.3c-1.5-2.8-2.3-4.2-2.4-4.4
				C655.7,269,657.9,272.3,657.9,273.6z M653.2,315.6c-1,0.2-3.3,0.6-6.9,1.4c-2.9,0.6-4.6,0.9-5.2,0.9c-2.9,0-6.2-0.8-10.1-2.4
				c0.7,0,1.7-0.2,3.2-0.5c1.4-0.3,2.4-0.5,2.9-0.5c0.6,0,2.3,0.3,5,1c2.8,0.7,4.5,1,5,1C648.4,316.5,650.4,316.2,653.2,315.6z
				 M645.8,234.1c-2,1.5-4,3-6.1,4.5c-2.4,1.9-3.7,3.7-4,5.7c1.1,1,2.4,2.4,3.9,4.3c-3.5-2.3-5.2-4.6-5.2-6.9c0-1.2,1-2.4,2.9-3.7
				c1.9-1.3,4-2.6,6.1-3.9H645.8z M650.1,261l-0.9,0.6l-5.7-7.7l0.9-0.6L650.1,261z M658.5,244.3c0,1.3-1.2,3.7-3.5,6.9
				c-1.1,0-2.9,0.3-5.6,0.8c-0.3-0.2-0.5-0.5-0.8-1.1c-0.3-0.6-0.6-1-0.8-1.3c1.3-0.3,3.1-1.6,5.3-4c1.9-1.9,3.2-3.6,3.9-4.9
				c0,0.2,0.3,0.7,0.8,1.5C658.3,243,658.5,243.7,658.5,244.3z M657.3,315.1l-0.4,1l-2.3-0.9v-1L657.3,315.1z M660.6,255l-2.3,2.3
				h-2.4c1.2-1.3,2.1-2.4,2.9-3.3C659.2,254.2,659.8,254.5,660.6,255z M661.8,317.1c-0.2-0.1-0.8-0.2-1.8-0.3
				c-1-0.1-1.5-0.5-1.5-1.2s0.4-2.1,1.1-4.3c0.8-2.2,1.1-3.8,1.1-4.9c0-0.8-0.2-1.4-0.5-2c0,0.2,0.3,0.6,0.8,1.2
				c0.5,0.6,0.8,1.2,0.8,1.8V317.1z M664.1,239.4l-1.4,5.2h-1l1.4-5.2H664.1z"/>
		</g>
		<path class="st1" d="M118.1,51.7c0,0.6,0,1.1,0,1.7c-4.8,8.6-12,14.8-20.5,19.5C83,81,67,84.4,50.7,86.9
			c-3.6,0.5-7.2,0.8-10.9,1.2c-3.3,0-6.6,0-9.9,0c-1.6-0.2-3.2-0.6-4.8-0.7c-2-0.1-3.1-1-4-2.8c-4.1-8.4-8.5-16.7-12.7-25.1
			c0-1,0-1.9,0-2.9c1.3-3.2,3.7-5.5,6.7-7c4-1.9,8.2-3.6,12.4-5c3.5-1.2,7.1-1.9,10.7-2.8c0-5.4-0.4-10.7,0.1-16
			c0.8-7.4,3.4-14,11.5-16.5c1.2,0,2.5,0,3.7,0c11.2,3,18.2,11.5,25.4,19c6.3-3.2,12.3-6.4,18.4-9.2c3.2-1.5,6.8-2.4,10.5-2
			c3.4,0.4,5.7,2.5,6.2,5.9c0.6,4.5,1.1,9,1.7,13.5C116.4,41.7,117.3,46.7,118.1,51.7z M81.1,34.9c-5.5-6.7-11-12.9-17.8-17.7
			c-2.4-1.7-5.1-3.1-7.8-4.1c-4-1.6-7.5-0.5-10.4,2.9c-2.6,3.1-3.9,6.6-4.4,10.5c-1.5,10.9,0.7,21.4,3.8,31.8
			c0.2,0.5,1.2,1.2,1.8,1.2c2.4,0,4.8-0.1,7.2-0.3c11.8-1,22.6-4.6,32.1-11.9c1-0.8,1.9-1.7,2.9-2.7c-2.1-2.7-3.9-5.2-5.9-7.9
			C72.4,47.6,60,53.3,45.4,54.8c-0.2-0.9-0.3-1.6-0.5-2.3C58.5,49.7,71.7,46.4,81.1,34.9z M92.3,45.3c-0.9,0.7-1.9,1.4-2.7,2.1
			C76.5,59,61.1,63.6,43.8,62.4c-0.5,0-1.3-0.7-1.5-1.3c-0.7-2-1.2-4.1-1.7-6.2c-0.8-3.5-1.5-7-2.3-10.8c-4.5,1.1-8.7,2-13,3.2
			c-4.2,1.2-8.3,2.7-11.7,5.5c-3.8,3.2-3.6,7.3,0.5,9.9c1.9,1.2,4.1,2.3,6.4,2.8c15,3.8,30,3.2,44.8-1.1
			c11.3-3.2,20.8-9.7,29.9-16.9c5.3-4.2,10.2-8.8,13.6-14.6c1.4-2.3,2.4-5,2.9-7.7c0.9-4.6-1.5-6.9-6.2-6.5c-0.3,0-0.7,0-1,0.1
			c-8.9,1.8-16.4,6.5-23.7,11.6C84.6,35.4,88.2,40.1,92.3,45.3z M109.3,60.5c0.3-8.3,0.6-16.2,0.9-24.1
			c-4.9,6.7-10.7,12.2-17.4,17.2C98.3,55.9,103.6,58.1,109.3,60.5z M65.9,67.6c5.3,2.5,10.7,5.2,16.3,7.8c1.2,0.5,2.4,0.1,2.7-1.4
			c0.9-5.5,1.7-11,2.5-16.2C80.2,61.1,73.1,64.4,65.9,67.6z M90.4,56c-0.8,6-1.6,11.8-2.5,17.9c7-2.8,13.5-5.8,18.8-11.3
			C101.2,60.3,96,58.2,90.4,56z M59.1,69.1c-7.1,0.6-14.1,1.2-21.3,1.7c4.6,4.3,9.1,8.5,13.7,12.7c0.3,0.3,1.7-0.1,1.9-0.4
			C55.4,78.4,57.2,73.7,59.1,69.1z M62.1,69.5C60,74.1,58,78.6,56,83c0.1,0.2,0.2,0.4,0.3,0.6c7.4-2,14.7-4,22.1-6
			c0-0.2,0-0.4,0-0.6C73,74.5,67.6,72,62.1,69.5z M34.6,72.3c-2.4,4.1-4.7,8.1-7.1,12.3c7,0.9,13.5,0.8,20.5-0.1
			C43.4,80.3,39.1,76.3,34.6,72.3z M15.5,66.6c3.1,5.5,6.3,11.2,9.7,17.2c2.3-4.7,4.5-9.1,6.6-13.3C26.2,69.2,20.8,67.9,15.5,66.6z
			 M111.7,56c0.1,0,0.3,0.1,0.4,0.1c0.5-0.7,0.9-1.4,1.5-1.9c1.9-1.8,2.1-3.8,1.5-6.2c-0.5-2.1-0.8-4.3-1.2-6.5
			c-0.4-2.4-0.8-4.8-1.2-7.3c-0.1,0-0.2,0-0.3,0C112.2,41.5,112,48.8,111.7,56z"/>
		<path class="st2" d="M81.1,34.9c-9.4,11.5-22.6,14.8-36.2,17.6c0.2,0.7,0.3,1.4,0.5,2.3c14.6-1.5,27-7.2,37.2-18.1
			c2,2.6,3.9,5.1,5.9,7.9c-1,0.9-1.9,1.9-2.9,2.7c-9.5,7.3-20.3,10.9-32.1,11.9c-2.4,0.2-4.8,0.3-7.2,0.3c-0.6,0-1.6-0.7-1.8-1.2
			c-3.1-10.4-5.4-20.8-3.8-31.8c0.5-3.9,1.8-7.5,4.4-10.5c2.8-3.3,6.3-4.4,10.4-2.9c2.7,1.1,5.4,2.4,7.8,4.1
			C70.1,22,75.6,28.2,81.1,34.9z"/>
		<path class="st2" d="M92.3,45.3c-4.1-5.2-7.8-9.9-11.5-14.7c7.3-5.1,14.8-9.8,23.7-11.6c0.3-0.1,0.7-0.1,1-0.1
			c4.7-0.4,7.1,1.9,6.2,6.5c-0.5,2.7-1.5,5.3-2.9,7.7c-3.4,5.9-8.3,10.5-13.6,14.6c-9.1,7.2-18.6,13.7-29.9,16.9
			c-14.8,4.2-29.8,4.9-44.8,1.1c-2.2-0.6-4.4-1.6-6.4-2.8c-4.2-2.6-4.3-6.8-0.5-9.9c3.4-2.8,7.5-4.4,11.7-5.5
			c4.2-1.2,8.5-2.1,13-3.2c0.8,3.8,1.5,7.3,2.3,10.8c0.5,2.1,1,4.2,1.7,6.2c0.2,0.5,0.9,1.2,1.5,1.3c17.3,1.1,32.7-3.5,45.9-15
			C90.5,46.7,91.4,46,92.3,45.3z"/>
		<path class="st2" d="M109.3,60.5c-5.7-2.4-11-4.6-16.5-6.9c6.6-5,12.5-10.5,17.4-17.2C109.9,44.3,109.6,52.2,109.3,60.5z"/>
		<path class="st2" d="M65.9,67.6c7.1-3.2,14.3-6.5,21.4-9.7c-0.8,5.2-1.6,10.7-2.5,16.2c-0.2,1.5-1.5,1.9-2.7,1.4
			C76.7,72.9,71.2,70.2,65.9,67.6z"/>
		<path class="st2" d="M90.4,56c5.6,2.2,10.9,4.3,16.3,6.5C101.4,68,94.9,71,87.9,73.8C88.7,67.7,89.5,62,90.4,56z"/>
		<path class="st2" d="M59.1,69.1c-1.8,4.6-3.7,9.3-5.7,14c-0.2,0.4-1.6,0.7-1.9,0.4c-4.6-4.1-9.1-8.4-13.7-12.7
			C44.9,70.3,51.9,69.7,59.1,69.1z"/>
		<path class="st2" d="M62.1,69.5c5.6,2.5,10.9,5,16.3,7.4c0,0.2,0,0.4,0,0.6c-7.4,2-14.7,4-22.1,6c-0.1-0.2-0.2-0.4-0.3-0.6
			C58,78.6,60,74.1,62.1,69.5z"/>
		<path class="st2" d="M34.6,72.3c4.4,4,8.8,7.9,13.4,12.2c-7,0.9-13.5,1.1-20.5,0.1C29.9,80.4,32.2,76.5,34.6,72.3z"/>
		<path class="st2" d="M15.5,66.6c5.4,1.3,10.7,2.5,16.3,3.9c-2.1,4.2-4.3,8.6-6.6,13.3C21.8,77.9,18.6,72.2,15.5,66.6z"/>
		<path class="st2" d="M111.7,56c0.2-7.2,0.5-14.5,0.7-21.7c0.1,0,0.2,0,0.3,0c0.4,2.4,0.8,4.8,1.2,7.3c0.4,2.2,0.6,4.4,1.2,6.5
			c0.6,2.4,0.4,4.4-1.5,6.2c-0.6,0.6-1,1.3-1.5,1.9C112,56.1,111.9,56,111.7,56z"/>
	</g>
</g>
<g id="Boards" class="st0">
</g>
<g id="Layer_6_xA0_Image_1_" class="st0">
</g>
</svg>
